<svg width="193" height="387" viewBox="0 0 193 387" fill="none" xmlns="http://www.w3.org/2000/svg">
<path d="M3.41592 79.8937H2.40347C1.62832 79.8937 1 80.5221 1 81.2972V93.0701C1 93.8452 1.62832 94.4736 2.40347 94.4736H3.41592C4.19107 94.4736 4.81948 93.8452 4.81948 93.0701V81.2972C4.81948 80.5221 4.19107 79.8937 3.41592 79.8937Z" fill="white" stroke="#FFFAE9" stroke-width="0.731004" stroke-miterlimit="10"/>
<path d="M3.41592 107.877H2.40347C1.62832 107.877 1 108.505 1 109.28V134.193C1 134.968 1.62832 135.596 2.40347 135.596H3.41592C4.19107 135.596 4.81948 134.968 4.81948 134.193V109.28C4.81948 108.505 4.19107 107.877 3.41592 107.877Z" fill="white" stroke="#FFFAE9" stroke-width="0.731004" stroke-miterlimit="10"/>
<path d="M3.41592 144.061H2.40347C1.62832 144.061 1 144.69 1 145.465V170.377C1 171.153 1.62832 171.781 2.40347 171.781H3.41592C4.19107 171.781 4.81948 171.153 4.81948 170.377V145.465C4.81948 144.69 4.19107 144.061 3.41592 144.061Z" fill="white" stroke="#FFFAE9" stroke-width="0.731004" stroke-miterlimit="10"/>
<path d="M191.163 115.519H190.151C189.376 115.519 188.748 116.148 188.748 116.923V158.17C188.748 158.945 189.376 159.573 190.151 159.573H191.163C191.939 159.573 192.567 158.945 192.567 158.17V116.923C192.567 116.148 191.939 115.519 191.163 115.519Z" fill="white" stroke="#FFFAE9" stroke-width="0.731004" stroke-miterlimit="10"/>
<path d="M161.141 1H32.3308C16.0285 1 2.81287 14.2156 2.81287 30.518V356.893C2.81287 373.196 16.0285 386.411 32.3308 386.411H161.141C177.443 386.411 190.659 373.196 190.659 356.893V30.518C190.659 14.2156 177.443 1 161.141 1Z" fill="white" stroke="#FFFAE9" stroke-width="0.731004" stroke-miterlimit="10"/>
<path d="M109.525 4.08115H83.2599C82.8322 4.08115 82.4814 3.73027 82.4814 3.30263C82.4814 2.87499 82.8322 2.52411 83.2599 2.52411H109.525C109.953 2.52411 110.303 2.87499 110.303 3.30263C110.303 3.73027 109.953 4.08115 109.525 4.08115Z" fill="#1A1A1A"/>
<path d="M114.901 1C113.812 1 112.931 1.88085 112.931 2.97005C112.931 4.77929 111.451 6.25957 109.642 6.25957H82.9857C81.1765 6.25957 79.6962 4.77929 79.6962 2.97005C79.6962 1.88085 78.8154 1 77.7262 1" stroke="#FFFAE9" stroke-width="0.731004" stroke-miterlimit="10"/>
<path d="M77.7156 16.245C77.9973 14.5095 76.8187 12.8743 75.0832 12.5926C73.3477 12.3109 71.7125 13.4894 71.4308 15.2249C71.1491 16.9604 72.3276 18.5956 74.0631 18.8773C75.7986 19.159 77.4338 17.9805 77.7156 16.245Z" fill="white" stroke="#1A1A1A" stroke-width="0.731004" stroke-miterlimit="10"/>
<path d="M128.399 14.9551V14.9586V15.1268C128.399 19.3448 124.951 22.6451 120.713 22.6451H73.4133C69.1852 22.6451 65.7268 19.1867 65.7268 14.9586H65.7263C65.6911 12.128 63.3876 9.7685 60.5403 9.7685H34.3996C22.2019 9.7685 12.2209 19.7495 12.2209 31.9472V355.102C12.2209 367.3 22.2019 377.281 34.3996 377.281H159.175C171.372 377.281 181.353 367.3 181.353 355.102V31.9508C181.353 19.7532 171.372 9.77216 159.175 9.77216H159.171H133.637C130.765 9.77216 128.427 12.0862 128.399 14.9551Z" stroke="#FFFBEA" stroke-width="0.731004"/>
<mask id="mask0_201_222" style="mask-type:alpha" maskUnits="userSpaceOnUse" x="12" y="10" width="169" height="367">
<path d="M159.171 10.1377H133.637C130.965 10.1377 128.791 12.2905 128.765 14.9586V15.1268C128.765 19.5567 125.143 23.0106 120.713 23.0106H73.4133C68.9834 23.0106 65.3613 19.3885 65.3613 14.9586V15.0244C65.3613 12.3599 63.2012 10.134 60.5403 10.134H34.3996C22.4038 10.134 12.5864 19.9514 12.5864 31.9472V355.102C12.5864 367.098 22.4038 376.916 34.3996 376.916H159.175C171.17 376.916 180.988 367.098 180.988 355.102V31.9508C180.988 19.9551 171.17 10.1377 159.175 10.1377H159.171Z" fill="white"/>
</mask>
<g mask="url(#mask0_201_222)">
<rect width="169.4" height="366.599" transform="translate(12.1091 10.2254)" fill="white"/>
<g filter="url(#filter0_d_201_222)">
<rect width="170.969" height="369.995" transform="translate(13 7)" fill="url(#paint0_linear_201_222)"/>
<g filter="url(#filter1_d_201_222)">
<rect x="32.7272" y="241.973" width="131.515" height="21.9191" rx="10.9596" fill="white"/>
</g>
<path d="M84.5794 254.853C84.5794 254.71 84.5571 254.581 84.5126 254.468C84.4715 254.352 84.3945 254.247 84.2814 254.155C84.1718 254.059 84.016 253.966 83.8139 253.877C83.6153 253.785 83.3584 253.689 83.0434 253.59C82.694 253.48 82.3687 253.357 82.0673 253.22C81.7659 253.083 81.5005 252.924 81.271 252.742C81.0449 252.561 80.8686 252.352 80.7418 252.115C80.6151 251.876 80.5518 251.598 80.5518 251.283C80.5518 250.975 80.6168 250.694 80.747 250.441C80.8805 250.187 81.0689 249.97 81.3121 249.788C81.5552 249.603 81.8412 249.461 82.17 249.362C82.5022 249.262 82.8687 249.213 83.2694 249.213C83.8242 249.213 84.3037 249.314 84.7078 249.516C85.1154 249.718 85.4305 249.992 85.6531 250.338C85.8757 250.684 85.987 251.072 85.987 251.504H84.5794C84.5794 251.271 84.5297 251.066 84.4304 250.887C84.3345 250.709 84.1873 250.569 83.9886 250.466C83.7934 250.363 83.5468 250.312 83.2488 250.312C82.9612 250.312 82.7214 250.355 82.5296 250.441C82.3413 250.526 82.1991 250.643 82.1032 250.79C82.0108 250.937 81.9645 251.102 81.9645 251.283C81.9645 251.42 81.9971 251.543 82.0621 251.653C82.1272 251.759 82.2248 251.86 82.355 251.956C82.4851 252.049 82.6461 252.136 82.8379 252.218C83.0331 252.297 83.2591 252.376 83.516 252.454C83.927 252.578 84.2866 252.715 84.5948 252.865C84.9065 253.016 85.1651 253.187 85.3705 253.379C85.5795 253.571 85.7353 253.787 85.838 254.026C85.9442 254.266 85.9973 254.538 85.9973 254.843C85.9973 255.165 85.9339 255.453 85.8072 255.706C85.6805 255.96 85.499 256.175 85.2627 256.354C85.0263 256.532 84.7421 256.667 84.4099 256.759C84.0811 256.852 83.7129 256.898 83.3054 256.898C82.9423 256.898 82.5827 256.85 82.2265 256.754C81.8738 256.655 81.5535 256.508 81.2658 256.312C80.9782 256.114 80.7487 255.864 80.5774 255.562C80.4062 255.258 80.3206 254.901 80.3206 254.494H81.7385C81.7385 254.73 81.7762 254.932 81.8515 255.1C81.9303 255.264 82.0399 255.4 82.1803 255.506C82.3241 255.609 82.4919 255.684 82.6837 255.732C82.8755 255.78 83.0827 255.804 83.3054 255.804C83.593 255.804 83.8294 255.764 84.0143 255.686C84.2027 255.604 84.3431 255.49 84.4356 255.347C84.5315 255.203 84.5794 255.038 84.5794 254.853ZM88.4221 251.237V256.795H87.0607V251.237H88.4221ZM86.9682 249.783C86.9682 249.581 87.0367 249.413 87.1737 249.279C87.3142 249.146 87.5025 249.079 87.7388 249.079C87.9752 249.079 88.1618 249.146 88.2988 249.279C88.4392 249.413 88.5094 249.581 88.5094 249.783C88.5094 249.982 88.4392 250.148 88.2988 250.281C88.1618 250.415 87.9752 250.482 87.7388 250.482C87.5025 250.482 87.3142 250.415 87.1737 250.281C87.0367 250.148 86.9682 249.982 86.9682 249.783ZM93.2512 251.237H94.4841V256.626C94.4841 257.129 94.3745 257.556 94.1553 257.905C93.9396 258.258 93.6365 258.525 93.246 258.706C92.8556 258.891 92.4018 258.984 91.8846 258.984C91.662 258.984 91.4206 258.953 91.1603 258.891C90.9034 258.83 90.6551 258.732 90.4154 258.599C90.1791 258.468 89.9821 258.299 89.8246 258.09L90.4359 257.289C90.6209 257.504 90.8298 257.667 91.0627 257.777C91.2956 257.89 91.5473 257.946 91.8179 257.946C92.0918 257.946 92.3247 257.895 92.5165 257.792C92.7117 257.693 92.8607 257.545 92.9635 257.35C93.0696 257.158 93.1227 256.922 93.1227 256.641V252.506L93.2512 251.237ZM89.4958 254.083V253.975C89.4958 253.55 89.5472 253.165 89.6499 252.819C89.7527 252.47 89.8999 252.17 90.0917 251.92C90.2869 251.67 90.5215 251.477 90.7955 251.34C91.0729 251.203 91.3846 251.134 91.7305 251.134C92.097 251.134 92.4052 251.201 92.6552 251.334C92.9087 251.468 93.1176 251.658 93.282 251.905C93.4498 252.151 93.58 252.444 93.6724 252.783C93.7683 253.119 93.842 253.489 93.8933 253.893V254.186C93.8454 254.579 93.7683 254.941 93.6621 255.27C93.5594 255.598 93.4224 255.886 93.2512 256.133C93.0799 256.376 92.8676 256.564 92.6141 256.698C92.3607 256.831 92.0627 256.898 91.7202 256.898C91.3778 256.898 91.0695 256.828 90.7955 256.687C90.5215 256.547 90.2869 256.35 90.0917 256.097C89.8999 255.843 89.7527 255.545 89.6499 255.203C89.5472 254.86 89.4958 254.487 89.4958 254.083ZM90.852 253.975V254.083C90.852 254.323 90.876 254.547 90.924 254.756C90.9719 254.965 91.0455 255.15 91.1449 255.311C91.2442 255.468 91.3692 255.592 91.5199 255.681C91.6706 255.77 91.8504 255.814 92.0593 255.814C92.3401 255.814 92.5696 255.756 92.7477 255.639C92.9292 255.52 93.0662 255.357 93.1587 255.151C93.2546 254.943 93.3162 254.708 93.3436 254.448V253.641C93.3265 253.436 93.2888 253.245 93.2306 253.071C93.1758 252.896 93.0988 252.745 92.9994 252.619C92.9001 252.492 92.7734 252.393 92.6193 252.321C92.4652 252.249 92.2819 252.213 92.0696 252.213C91.8641 252.213 91.6843 252.259 91.5302 252.352C91.376 252.441 91.2493 252.566 91.15 252.727C91.0507 252.888 90.9753 253.074 90.924 253.287C90.876 253.499 90.852 253.728 90.852 253.975ZM97.0374 252.424V256.795H95.6811V251.237H96.9552L97.0374 252.424ZM96.8216 253.816H96.4209C96.4243 253.412 96.4791 253.045 96.5853 252.716C96.6914 252.388 96.8404 252.105 97.0322 251.869C97.2274 251.632 97.4586 251.451 97.7257 251.324C97.9929 251.197 98.2909 251.134 98.6196 251.134C98.8868 251.134 99.1282 251.172 99.344 251.247C99.5598 251.322 99.7447 251.442 99.8988 251.607C100.056 251.771 100.176 251.987 100.258 252.254C100.344 252.518 100.387 252.843 100.387 253.23V256.795H99.0203V253.22C99.0203 252.966 98.9827 252.766 98.9073 252.619C98.8354 252.471 98.7292 252.367 98.5888 252.305C98.4518 252.244 98.2823 252.213 98.0802 252.213C97.8713 252.213 97.6881 252.256 97.5305 252.341C97.3764 252.424 97.2463 252.538 97.1401 252.686C97.0374 252.833 96.9586 253.002 96.9038 253.194C96.849 253.386 96.8216 253.593 96.8216 253.816ZM105.812 249.315V256.795H104.399V249.315H105.812ZM108.565 252.424V256.795H107.209V251.237H108.483L108.565 252.424ZM108.35 253.816H107.949C107.952 253.412 108.007 253.045 108.113 252.716C108.22 252.388 108.369 252.105 108.56 251.869C108.756 251.632 108.987 251.451 109.254 251.324C109.521 251.197 109.819 251.134 110.148 251.134C110.415 251.134 110.656 251.172 110.872 251.247C111.088 251.322 111.273 251.442 111.427 251.607C111.584 251.771 111.704 251.987 111.787 252.254C111.872 252.518 111.915 252.843 111.915 253.23V256.795H110.548V253.22C110.548 252.966 110.511 252.766 110.435 252.619C110.364 252.471 110.257 252.367 110.117 252.305C109.98 252.244 109.81 252.213 109.608 252.213C109.399 252.213 109.216 252.256 109.059 252.341C108.905 252.424 108.774 252.538 108.668 252.686C108.565 252.833 108.487 253.002 108.432 253.194C108.377 253.386 108.35 253.593 108.35 253.816Z" fill="black"/>
<rect x="32.7272" y="179.284" width="131.515" height="21.9191" rx="4.38383" fill="white"/>
<path d="M44.4759 186.627H45.4622V191.687C45.4622 192.249 45.3372 192.716 45.0872 193.089C44.8372 193.463 44.505 193.744 44.0906 193.932C43.6796 194.117 43.2326 194.209 42.7497 194.209C42.2429 194.209 41.7839 194.117 41.3729 193.932C40.9654 193.744 40.6417 193.463 40.402 193.089C40.1657 192.716 40.0475 192.249 40.0475 191.687V186.627H41.0287V191.687C41.0287 192.077 41.1007 192.399 41.2445 192.653C41.3883 192.906 41.5887 193.095 41.8456 193.218C42.1059 193.341 42.4072 193.403 42.7497 193.403C43.0956 193.403 43.397 193.341 43.6539 193.218C43.9142 193.095 44.1163 192.906 44.2601 192.653C44.4039 192.399 44.4759 192.077 44.4759 191.687V186.627ZM50.1115 192.632C50.1115 192.495 50.0807 192.368 50.019 192.252C49.9608 192.132 49.8392 192.024 49.6543 191.928C49.4727 191.829 49.1988 191.743 48.8323 191.672C48.5241 191.606 48.2449 191.529 47.9949 191.44C47.7483 191.351 47.5377 191.243 47.363 191.117C47.1918 190.99 47.0599 190.841 46.9675 190.67C46.875 190.499 46.8287 190.298 46.8287 190.069C46.8287 189.849 46.8767 189.642 46.9726 189.447C47.0719 189.252 47.2106 189.079 47.3887 188.928C47.5702 188.778 47.7877 188.659 48.0411 188.574C48.2946 188.488 48.5771 188.445 48.8888 188.445C49.334 188.445 49.7142 188.524 50.0293 188.682C50.3444 188.839 50.5858 189.05 50.7536 189.313C50.9215 189.574 51.0054 189.863 51.0054 190.182H50.055C50.055 190.028 50.0087 189.879 49.9163 189.735C49.8272 189.587 49.6954 189.466 49.5207 189.37C49.3494 189.274 49.1388 189.226 48.8888 189.226C48.6251 189.226 48.411 189.267 48.2466 189.349C48.0857 189.428 47.9675 189.529 47.8922 189.653C47.8202 189.776 47.7843 189.906 47.7843 190.043C47.7843 190.146 47.8014 190.238 47.8357 190.32C47.8733 190.399 47.9384 190.473 48.0309 190.541C48.1233 190.606 48.2535 190.668 48.4213 190.726C48.5891 190.784 48.8032 190.843 49.0635 190.901C49.519 191.004 49.894 191.127 50.1885 191.271C50.4831 191.415 50.7023 191.591 50.8461 191.8C50.99 192.009 51.0619 192.262 51.0619 192.56C51.0619 192.803 51.0105 193.026 50.9078 193.228C50.8084 193.43 50.6629 193.605 50.4711 193.752C50.2827 193.896 50.0567 194.009 49.793 194.091C49.5327 194.17 49.2399 194.209 48.9145 194.209C48.4247 194.209 48.0103 194.122 47.6713 193.947C47.3322 193.773 47.0753 193.547 46.9007 193.269C46.726 192.992 46.6387 192.699 46.6387 192.391H47.5942C47.6079 192.651 47.6833 192.858 47.8202 193.012C47.9572 193.163 48.1251 193.271 48.3237 193.336C48.5223 193.398 48.7193 193.428 48.9145 193.428C49.1748 193.428 49.3923 193.394 49.5669 193.326C49.745 193.257 49.8803 193.163 49.9728 193.043C50.0652 192.923 50.1115 192.786 50.1115 192.632ZM54.6169 194.209C54.2299 194.209 53.8788 194.144 53.5637 194.014C53.2521 193.881 52.9832 193.694 52.7572 193.454C52.5346 193.214 52.3633 192.93 52.2435 192.601C52.1236 192.273 52.0637 191.913 52.0637 191.523V191.307C52.0637 190.855 52.1304 190.452 52.264 190.1C52.3976 189.743 52.5791 189.442 52.8086 189.195C53.038 188.949 53.2983 188.762 53.5894 188.635C53.8805 188.509 54.1819 188.445 54.4936 188.445C54.8909 188.445 55.2334 188.514 55.5211 188.651C55.8122 188.788 56.0502 188.98 56.2351 189.226C56.4201 189.469 56.5571 189.757 56.6461 190.089C56.7352 190.418 56.7797 190.778 56.7797 191.168V191.594H52.6288V190.819H55.8293V190.747C55.8156 190.5 55.7642 190.26 55.6752 190.028C55.5896 189.795 55.4526 189.603 55.2642 189.452C55.0758 189.302 54.819 189.226 54.4936 189.226C54.2778 189.226 54.0792 189.272 53.8977 189.365C53.7162 189.454 53.5603 189.587 53.4302 189.766C53.3 189.944 53.199 190.161 53.1271 190.418C53.0552 190.675 53.0192 190.971 53.0192 191.307V191.523C53.0192 191.786 53.0552 192.035 53.1271 192.267C53.2024 192.497 53.3103 192.699 53.4507 192.874C53.5946 193.048 53.7675 193.185 53.9696 193.285C54.1751 193.384 54.408 193.434 54.6683 193.434C55.0039 193.434 55.2882 193.365 55.5211 193.228C55.7539 193.091 55.9577 192.908 56.1324 192.678L56.7078 193.136C56.5879 193.317 56.4355 193.49 56.2506 193.655C56.0656 193.819 55.8379 193.952 55.5673 194.055C55.3002 194.158 54.9834 194.209 54.6169 194.209ZM58.8398 189.421V194.107H57.8894V188.548H58.8141L58.8398 189.421ZM60.5762 188.517L60.571 189.401C60.4922 189.384 60.4169 189.373 60.345 189.37C60.2765 189.363 60.1977 189.36 60.1087 189.36C59.8895 189.36 59.696 189.394 59.5281 189.462C59.3603 189.531 59.2182 189.627 59.1018 189.75C58.9853 189.873 58.8928 190.021 58.8243 190.192C58.7593 190.36 58.7165 190.545 58.6959 190.747L58.4288 190.901C58.4288 190.565 58.4613 190.25 58.5264 189.956C58.5949 189.661 58.6993 189.401 58.8398 189.175C58.9802 188.945 59.1583 188.767 59.374 188.641C59.5932 188.51 59.8535 188.445 60.1549 188.445C60.2234 188.445 60.3022 188.454 60.3912 188.471C60.4803 188.485 60.5419 188.5 60.5762 188.517ZM62.405 189.735V194.107H61.4546V188.548H62.3537L62.405 189.735ZM62.179 191.117L61.7834 191.101C61.7868 190.721 61.8434 190.37 61.953 190.048C62.0625 189.723 62.2167 189.44 62.4153 189.2C62.614 188.961 62.8503 188.776 63.1243 188.646C63.4017 188.512 63.7082 188.445 64.0438 188.445C64.3178 188.445 64.5644 188.483 64.7836 188.558C65.0028 188.63 65.1895 188.747 65.3436 188.908C65.5011 189.069 65.621 189.278 65.7032 189.534C65.7854 189.788 65.8265 190.098 65.8265 190.464V194.107H64.8709V190.454C64.8709 190.163 64.8281 189.93 64.7425 189.755C64.6569 189.577 64.5319 189.449 64.3675 189.37C64.2031 189.288 64.001 189.247 63.7613 189.247C63.525 189.247 63.3092 189.296 63.114 189.396C62.9222 189.495 62.7561 189.632 62.6157 189.807C62.4787 189.981 62.3708 190.182 62.292 190.408C62.2167 190.63 62.179 190.867 62.179 191.117ZM70.5477 193.156V190.295C70.5477 190.076 70.5031 189.885 70.4141 189.724C70.3285 189.56 70.1983 189.433 70.0236 189.344C69.849 189.255 69.6332 189.211 69.3763 189.211C69.1366 189.211 68.926 189.252 68.7445 189.334C68.5664 189.416 68.4259 189.524 68.3232 189.658C68.2239 189.791 68.1742 189.935 68.1742 190.089H67.2238C67.2238 189.891 67.2752 189.694 67.3779 189.498C67.4807 189.303 67.628 189.127 67.8197 188.969C68.015 188.808 68.2479 188.682 68.5184 188.589C68.7924 188.493 69.0972 188.445 69.4329 188.445C69.837 188.445 70.1932 188.514 70.5014 188.651C70.8131 188.788 71.0562 188.995 71.2309 189.272C71.409 189.546 71.4981 189.891 71.4981 190.305V192.894C71.4981 193.079 71.5135 193.276 71.5443 193.485C71.5785 193.694 71.6282 193.874 71.6933 194.024V194.107H70.7018C70.6538 193.997 70.6161 193.851 70.5887 193.67C70.5614 193.485 70.5477 193.314 70.5477 193.156ZM70.712 190.737L70.7223 191.404H69.7616C69.4911 191.404 69.2496 191.427 69.0373 191.471C68.8249 191.512 68.6469 191.576 68.503 191.661C68.3592 191.747 68.2496 191.855 68.1742 191.985C68.0989 192.112 68.0612 192.261 68.0612 192.432C68.0612 192.607 68.1006 192.766 68.1794 192.91C68.2581 193.053 68.3763 193.168 68.5338 193.254C68.6948 193.336 68.8917 193.377 69.1246 193.377C69.4157 193.377 69.6726 193.315 69.8952 193.192C70.1178 193.069 70.2942 192.918 70.4244 192.74C70.5579 192.562 70.6298 192.389 70.6401 192.221L71.046 192.678C71.022 192.822 70.9569 192.982 70.8508 193.156C70.7446 193.331 70.6024 193.499 70.4244 193.66C70.2497 193.817 70.0408 193.949 69.7976 194.055C69.5579 194.158 69.2873 194.209 68.9859 194.209C68.6092 194.209 68.2787 194.136 67.9944 193.988C67.7136 193.841 67.4944 193.644 67.3368 193.398C67.1827 193.148 67.1057 192.869 67.1057 192.56C67.1057 192.262 67.1639 192 67.2803 191.774C67.3968 191.545 67.5646 191.355 67.7838 191.204C68.003 191.05 68.2667 190.933 68.5749 190.855C68.8832 190.776 69.2274 190.737 69.6075 190.737H70.712ZM73.9383 189.653V194.107H72.9827V188.548H73.8869L73.9383 189.653ZM73.7431 191.117L73.3012 191.101C73.3047 190.721 73.3543 190.37 73.4502 190.048C73.5461 189.723 73.6883 189.44 73.8766 189.2C74.065 188.961 74.2996 188.776 74.5804 188.646C74.8613 188.512 75.1866 188.445 75.5565 188.445C75.8168 188.445 76.0565 188.483 76.2757 188.558C76.4949 188.63 76.685 188.745 76.846 188.903C77.0069 189.06 77.132 189.262 77.221 189.509C77.31 189.755 77.3546 190.053 77.3546 190.403V194.107H76.4042V190.449C76.4042 190.158 76.3545 189.925 76.2552 189.75C76.1593 189.576 76.0223 189.449 75.8442 189.37C75.6661 189.288 75.4572 189.247 75.2175 189.247C74.9366 189.247 74.702 189.296 74.5136 189.396C74.3253 189.495 74.1746 189.632 74.0616 189.807C73.9485 189.981 73.8663 190.182 73.815 190.408C73.767 190.63 73.7431 190.867 73.7431 191.117ZM77.3443 190.593L76.7073 190.788C76.7107 190.483 76.7604 190.19 76.8563 189.909C76.9556 189.629 77.0977 189.379 77.2826 189.159C77.471 188.94 77.7022 188.767 77.9762 188.641C78.2502 188.51 78.5635 188.445 78.9163 188.445C79.2143 188.445 79.478 188.485 79.7075 188.563C79.9403 188.642 80.1356 188.764 80.2931 188.928C80.4541 189.089 80.5757 189.296 80.6579 189.55C80.7401 189.803 80.7811 190.105 80.7811 190.454V194.107H79.8256V190.444C79.8256 190.132 79.776 189.891 79.6766 189.719C79.5807 189.545 79.4437 189.423 79.2656 189.355C79.091 189.283 78.8821 189.247 78.6389 189.247C78.43 189.247 78.245 189.283 78.0841 189.355C77.9231 189.427 77.7878 189.526 77.6782 189.653C77.5686 189.776 77.4847 189.918 77.4265 190.079C77.3717 190.24 77.3443 190.411 77.3443 190.593ZM84.5262 194.209C84.1392 194.209 83.7882 194.144 83.4731 194.014C83.1614 193.881 82.8926 193.694 82.6665 193.454C82.4439 193.214 82.2727 192.93 82.1528 192.601C82.0329 192.273 81.973 191.913 81.973 191.523V191.307C81.973 190.855 82.0398 190.452 82.1734 190.1C82.3069 189.743 82.4884 189.442 82.7179 189.195C82.9474 188.949 83.2077 188.762 83.4988 188.635C83.7899 188.509 84.0913 188.445 84.4029 188.445C84.8002 188.445 85.1427 188.514 85.4304 188.651C85.7215 188.788 85.9595 188.98 86.1445 189.226C86.3294 189.469 86.4664 189.757 86.5555 190.089C86.6445 190.418 86.689 190.778 86.689 191.168V191.594H82.5381V190.819H85.7386V190.747C85.7249 190.5 85.6736 190.26 85.5845 190.028C85.4989 189.795 85.3619 189.603 85.1735 189.452C84.9852 189.302 84.7283 189.226 84.4029 189.226C84.1872 189.226 83.9885 189.272 83.807 189.365C83.6255 189.454 83.4697 189.587 83.3395 189.766C83.2094 189.944 83.1083 190.161 83.0364 190.418C82.9645 190.675 82.9285 190.971 82.9285 191.307V191.523C82.9285 191.786 82.9645 192.035 83.0364 192.267C83.1118 192.497 83.2197 192.699 83.3601 192.874C83.5039 193.048 83.6769 193.185 83.8789 193.285C84.0844 193.384 84.3173 193.434 84.5776 193.434C84.9132 193.434 85.1975 193.365 85.4304 193.228C85.6633 193.091 85.8671 192.908 86.0417 192.678L86.6171 193.136C86.4972 193.317 86.3448 193.49 86.1599 193.655C85.975 193.819 85.7472 193.952 85.4766 194.055C85.2095 194.158 84.8927 194.209 84.5262 194.209Z" fill="#C1C1C1"/>
<rect x="32.7272" y="207.779" width="131.515" height="21.9191" rx="4.38383" fill="white"/>
<path d="M42.9552 219.668H40.9568V218.862H42.9552C43.3422 218.862 43.6556 218.8 43.8954 218.677C44.1351 218.553 44.3098 218.382 44.4194 218.163C44.5324 217.944 44.5889 217.694 44.5889 217.413C44.5889 217.156 44.5324 216.915 44.4194 216.689C44.3098 216.462 44.1351 216.281 43.8954 216.144C43.6556 216.004 43.3422 215.933 42.9552 215.933H41.188V222.602H40.1965V215.122H42.9552C43.5203 215.122 43.9981 215.219 44.3885 215.414C44.779 215.61 45.0752 215.88 45.2773 216.226C45.4794 216.569 45.5804 216.961 45.5804 217.403C45.5804 217.882 45.4794 218.291 45.2773 218.63C45.0752 218.969 44.779 219.228 44.3885 219.406C43.9981 219.581 43.5203 219.668 42.9552 219.668ZM49.906 221.651V218.79C49.906 218.57 49.8615 218.38 49.7724 218.219C49.6868 218.055 49.5567 217.928 49.382 217.839C49.2073 217.75 48.9916 217.706 48.7347 217.706C48.4949 217.706 48.2843 217.747 48.1028 217.829C47.9247 217.911 47.7843 218.019 47.6815 218.153C47.5822 218.286 47.5326 218.43 47.5326 218.584H46.5822C46.5822 218.386 46.6335 218.189 46.7363 217.993C46.839 217.798 46.9863 217.622 47.1781 217.464C47.3733 217.303 47.6062 217.177 47.8768 217.084C48.1507 216.988 48.4556 216.94 48.7912 216.94C49.1953 216.94 49.5515 217.009 49.8598 217.146C50.1714 217.283 50.4146 217.49 50.5892 217.767C50.7673 218.041 50.8564 218.386 50.8564 218.8V221.389C50.8564 221.574 50.8718 221.771 50.9026 221.98C50.9369 222.189 50.9865 222.369 51.0516 222.519V222.602H50.0601C50.0122 222.492 49.9745 222.346 49.9471 222.165C49.9197 221.98 49.906 221.809 49.906 221.651ZM50.0704 219.231L50.0807 219.899H49.12C48.8494 219.899 48.608 219.922 48.3956 219.966C48.1833 220.007 48.0052 220.071 47.8613 220.156C47.7175 220.242 47.6079 220.35 47.5326 220.48C47.4572 220.607 47.4195 220.756 47.4195 220.927C47.4195 221.101 47.4589 221.261 47.5377 221.405C47.6165 221.548 47.7346 221.663 47.8922 221.749C48.0531 221.831 48.2501 221.872 48.483 221.872C48.7741 221.872 49.0309 221.81 49.2536 221.687C49.4762 221.564 49.6525 221.413 49.7827 221.235C49.9163 221.057 49.9882 220.884 49.9985 220.716L50.4043 221.173C50.3803 221.317 50.3153 221.476 50.2091 221.651C50.1029 221.826 49.9608 221.994 49.7827 222.155C49.608 222.312 49.3991 222.444 49.1559 222.55C48.9162 222.653 48.6456 222.704 48.3443 222.704C47.9675 222.704 47.637 222.631 47.3528 222.483C47.0719 222.336 46.8527 222.139 46.6952 221.893C46.5411 221.643 46.464 221.363 46.464 221.055C46.464 220.757 46.5222 220.495 46.6387 220.269C46.7551 220.04 46.9229 219.85 47.1421 219.699C47.3613 219.545 47.625 219.428 47.9333 219.35C48.2415 219.271 48.5857 219.231 48.9659 219.231H50.0704ZM55.5878 221.127C55.5878 220.99 55.557 220.863 55.4954 220.747C55.4371 220.627 55.3156 220.519 55.1306 220.423C54.9491 220.324 54.6751 220.238 54.3087 220.166C54.0004 220.101 53.7213 220.024 53.4713 219.935C53.2247 219.846 53.0141 219.738 52.8394 219.612C52.6681 219.485 52.5363 219.336 52.4438 219.165C52.3513 218.993 52.3051 218.793 52.3051 218.564C52.3051 218.344 52.3531 218.137 52.449 217.942C52.5483 217.747 52.687 217.574 52.8651 217.423C53.0466 217.272 53.2641 217.154 53.5175 217.069C53.7709 216.983 54.0535 216.94 54.3652 216.94C54.8104 216.94 55.1906 217.019 55.5056 217.177C55.8207 217.334 56.0622 217.545 56.23 217.808C56.3978 218.069 56.4817 218.358 56.4817 218.677H55.5313C55.5313 218.523 55.4851 218.374 55.3926 218.23C55.3036 218.082 55.1717 217.961 54.9971 217.865C54.8258 217.769 54.6152 217.721 54.3652 217.721C54.1014 217.721 53.8874 217.762 53.723 217.844C53.562 217.923 53.4439 218.024 53.3685 218.147C53.2966 218.271 53.2606 218.401 53.2606 218.538C53.2606 218.641 53.2778 218.733 53.312 218.815C53.3497 218.894 53.4148 218.968 53.5072 219.036C53.5997 219.101 53.7299 219.163 53.8977 219.221C54.0655 219.279 54.2795 219.338 54.5398 219.396C54.9953 219.499 55.3704 219.622 55.6649 219.766C55.9594 219.91 56.1786 220.086 56.3225 220.295C56.4663 220.504 56.5382 220.757 56.5382 221.055C56.5382 221.298 56.4869 221.521 56.3841 221.723C56.2848 221.925 56.1392 222.1 55.9475 222.247C55.7591 222.391 55.533 222.504 55.2693 222.586C55.009 222.665 54.7162 222.704 54.3908 222.704C53.9011 222.704 53.4867 222.617 53.1476 222.442C52.8086 222.268 52.5517 222.042 52.377 221.764C52.2024 221.487 52.115 221.194 52.115 220.886H53.0706C53.0843 221.146 53.1596 221.353 53.2966 221.507C53.4336 221.658 53.6014 221.766 53.8001 221.831C53.9987 221.893 54.1956 221.923 54.3908 221.923C54.6511 221.923 54.8686 221.889 55.0433 221.821C55.2214 221.752 55.3567 221.658 55.4491 221.538C55.5416 221.418 55.5878 221.281 55.5878 221.127ZM61.0231 221.127C61.0231 220.99 60.9923 220.863 60.9306 220.747C60.8724 220.627 60.7508 220.519 60.5659 220.423C60.3844 220.324 60.1104 220.238 59.7439 220.166C59.4357 220.101 59.1565 220.024 58.9065 219.935C58.6599 219.846 58.4493 219.738 58.2746 219.612C58.1034 219.485 57.9715 219.336 57.8791 219.165C57.7866 218.993 57.7404 218.793 57.7404 218.564C57.7404 218.344 57.7883 218.137 57.8842 217.942C57.9835 217.747 58.1222 217.574 58.3003 217.423C58.4819 217.272 58.6993 217.154 58.9528 217.069C59.2062 216.983 59.4888 216.94 59.8004 216.94C60.2457 216.94 60.6258 217.019 60.9409 217.177C61.256 217.334 61.4974 217.545 61.6653 217.808C61.8331 218.069 61.917 218.358 61.917 218.677H60.9666C60.9666 218.523 60.9204 218.374 60.8279 218.23C60.7388 218.082 60.607 217.961 60.4323 217.865C60.2611 217.769 60.0504 217.721 59.8004 217.721C59.5367 217.721 59.3227 217.762 59.1583 217.844C58.9973 217.923 58.8791 218.024 58.8038 218.147C58.7319 218.271 58.6959 218.401 58.6959 218.538C58.6959 218.641 58.713 218.733 58.7473 218.815C58.785 218.894 58.85 218.968 58.9425 219.036C59.035 219.101 59.1651 219.163 59.3329 219.221C59.5007 219.279 59.7148 219.338 59.9751 219.396C60.4306 219.499 60.8056 219.622 61.1002 219.766C61.3947 219.91 61.6139 220.086 61.7577 220.295C61.9016 220.504 61.9735 220.757 61.9735 221.055C61.9735 221.298 61.9221 221.521 61.8194 221.723C61.7201 221.925 61.5745 222.1 61.3827 222.247C61.1943 222.391 60.9683 222.504 60.7046 222.586C60.4443 222.665 60.1515 222.704 59.8261 222.704C59.3364 222.704 58.9219 222.617 58.5829 222.442C58.2438 222.268 57.987 222.042 57.8123 221.764C57.6376 221.487 57.5503 221.194 57.5503 220.886H58.5058C58.5195 221.146 58.5949 221.353 58.7319 221.507C58.8689 221.658 59.0367 221.766 59.2353 221.831C59.434 221.893 59.6309 221.923 59.8261 221.923C60.0864 221.923 60.3039 221.889 60.4785 221.821C60.6566 221.752 60.7919 221.658 60.8844 221.538C60.9769 221.418 61.0231 221.281 61.0231 221.127ZM64.6295 221.615L66.0577 217.043H66.6844L66.5611 217.952L65.1073 222.602H64.4959L64.6295 221.615ZM63.6688 217.043L64.8863 221.667L64.9737 222.602H64.3315L62.7184 217.043H63.6688ZM68.0509 221.631L69.212 217.043H70.1572L68.5441 222.602H67.9071L68.0509 221.631ZM66.8231 217.043L68.2205 221.538L68.3797 222.602H67.7735L66.2786 217.942L66.1553 217.043H66.8231ZM70.8816 219.884V219.766C70.8816 219.365 70.9398 218.993 71.0562 218.651C71.1727 218.305 71.3405 218.005 71.5597 217.752C71.7789 217.495 72.0443 217.296 72.356 217.156C72.6676 217.012 73.017 216.94 73.404 216.94C73.7944 216.94 74.1455 217.012 74.4571 217.156C74.7722 217.296 75.0394 217.495 75.2586 217.752C75.4812 218.005 75.6507 218.305 75.7671 218.651C75.8836 218.993 75.9418 219.365 75.9418 219.766V219.884C75.9418 220.285 75.8836 220.656 75.7671 220.999C75.6507 221.341 75.4812 221.641 75.2586 221.898C75.0394 222.151 74.7739 222.35 74.4623 222.494C74.154 222.634 73.8047 222.704 73.4143 222.704C73.0238 222.704 72.6728 222.634 72.3611 222.494C72.0495 222.35 71.7823 222.151 71.5597 221.898C71.3405 221.641 71.1727 221.341 71.0562 220.999C70.9398 220.656 70.8816 220.285 70.8816 219.884ZM71.832 219.766V219.884C71.832 220.161 71.8645 220.423 71.9296 220.67C71.9947 220.913 72.0923 221.129 72.2224 221.317C72.356 221.506 72.5221 221.655 72.7207 221.764C72.9194 221.87 73.1505 221.923 73.4143 221.923C73.6746 221.923 73.9023 221.87 74.0975 221.764C74.2962 221.655 74.4606 221.506 74.5907 221.317C74.7209 221.129 74.8185 220.913 74.8835 220.67C74.952 220.423 74.9863 220.161 74.9863 219.884V219.766C74.9863 219.492 74.952 219.233 74.8835 218.99C74.8185 218.743 74.7191 218.526 74.5856 218.338C74.4554 218.146 74.291 217.995 74.0924 217.885C73.8972 217.776 73.6677 217.721 73.404 217.721C73.1437 217.721 72.9142 217.776 72.7156 217.885C72.5204 217.995 72.356 218.146 72.2224 218.338C72.0923 218.526 71.9947 218.743 71.9296 218.99C71.8645 219.233 71.832 219.492 71.832 219.766ZM78.0841 217.916V222.602H77.1337V217.043H78.0584L78.0841 217.916ZM79.8205 217.012L79.8153 217.896C79.7366 217.879 79.6612 217.868 79.5893 217.865C79.5208 217.858 79.442 217.855 79.353 217.855C79.1338 217.855 78.9403 217.889 78.7725 217.957C78.6046 218.026 78.4625 218.122 78.3461 218.245C78.2296 218.368 78.1372 218.516 78.0687 218.687C78.0036 218.855 77.9608 219.04 77.9402 219.242L77.6731 219.396C77.6731 219.06 77.7056 218.745 77.7707 218.451C77.8392 218.156 77.9436 217.896 78.0841 217.67C78.2245 217.44 78.4026 217.262 78.6183 217.135C78.8375 217.005 79.0978 216.94 79.3992 216.94C79.4677 216.94 79.5465 216.949 79.6355 216.966C79.7246 216.98 79.7862 216.995 79.8205 217.012ZM84.0998 221.523V214.711H85.0554V222.602H84.182L84.0998 221.523ZM80.3599 219.884V219.776C80.3599 219.351 80.4113 218.966 80.514 218.62C80.6202 218.271 80.7692 217.971 80.961 217.721C81.1562 217.471 81.3874 217.279 81.6545 217.146C81.9251 217.009 82.2264 216.94 82.5587 216.94C82.908 216.94 83.2128 217.002 83.4731 217.125C83.7368 217.245 83.9594 217.421 84.1409 217.654C84.3259 217.884 84.4714 218.161 84.5776 218.487C84.6838 218.812 84.7574 219.18 84.7985 219.591V220.064C84.7608 220.471 84.6872 220.838 84.5776 221.163C84.4714 221.488 84.3259 221.766 84.1409 221.995C83.9594 222.225 83.7368 222.401 83.4731 222.524C83.2094 222.644 82.9011 222.704 82.5484 222.704C82.223 222.704 81.9251 222.634 81.6545 222.494C81.3874 222.353 81.1562 222.156 80.961 221.903C80.7692 221.649 80.6202 221.351 80.514 221.009C80.4113 220.663 80.3599 220.288 80.3599 219.884ZM81.3154 219.776V219.884C81.3154 220.161 81.3428 220.422 81.3976 220.665C81.4558 220.908 81.5449 221.122 81.6648 221.307C81.7846 221.492 81.937 221.637 82.122 221.744C82.3069 221.846 82.5278 221.898 82.7847 221.898C83.0998 221.898 83.3584 221.831 83.5604 221.697C83.7659 221.564 83.9303 221.387 84.0536 221.168C84.1769 220.949 84.2728 220.711 84.3413 220.454V219.216C84.3002 219.028 84.2403 218.846 84.1615 218.671C84.0861 218.493 83.9868 218.336 83.8635 218.199C83.7437 218.058 83.5947 217.947 83.4166 217.865C83.2419 217.783 83.0347 217.742 82.795 217.742C82.5347 217.742 82.3104 217.796 82.122 217.906C81.937 218.012 81.7846 218.159 81.6648 218.348C81.5449 218.533 81.4558 218.749 81.3976 218.995C81.3428 219.238 81.3154 219.499 81.3154 219.776Z" fill="#C1C1C1"/>
<path d="M41.7954 150.412V152.076H36.1547V150.412H41.7954ZM36.7943 140.857V152.076H34.6751V140.857H36.7943ZM42.697 147.992V147.83C42.697 147.219 42.7844 146.657 42.959 146.143C43.1337 145.624 43.388 145.174 43.7219 144.794C44.0558 144.414 44.4643 144.119 44.9472 143.908C45.4301 143.692 45.9798 143.584 46.5962 143.584C47.223 143.584 47.7778 143.692 48.2607 143.908C48.7488 144.119 49.1597 144.414 49.4937 144.794C49.8276 145.174 50.0819 145.624 50.2566 146.143C50.4312 146.657 50.5186 147.219 50.5186 147.83V147.992C50.5186 148.598 50.4312 149.161 50.2566 149.68C50.0819 150.194 49.8276 150.643 49.4937 151.028C49.1597 151.409 48.7513 151.704 48.2684 151.915C47.7855 152.125 47.2333 152.231 46.6116 152.231C45.9952 152.231 45.4429 152.125 44.9549 151.915C44.4668 151.704 44.0558 151.409 43.7219 151.028C43.388 150.643 43.1337 150.194 42.959 149.68C42.7844 149.161 42.697 148.598 42.697 147.992ZM44.7314 147.83V147.992C44.7314 148.357 44.7674 148.699 44.8393 149.017C44.9112 149.336 45.0216 149.616 45.1706 149.857C45.3196 150.099 45.5123 150.289 45.7486 150.427C45.99 150.561 46.2777 150.628 46.6116 150.628C46.9404 150.628 47.223 150.561 47.4593 150.427C47.6956 150.289 47.8883 150.099 48.0372 149.857C48.1914 149.616 48.3044 149.336 48.3763 149.017C48.4482 148.699 48.4842 148.357 48.4842 147.992V147.83C48.4842 147.471 48.4482 147.134 48.3763 146.821C48.3044 146.502 48.1914 146.222 48.0372 145.981C47.8883 145.734 47.693 145.542 47.4516 145.403C47.2153 145.259 46.9302 145.187 46.5962 145.187C46.2674 145.187 45.9849 145.259 45.7486 145.403C45.5123 145.542 45.3196 145.734 45.1706 145.981C45.0216 146.222 44.9112 146.502 44.8393 146.821C44.7674 147.134 44.7314 147.471 44.7314 147.83ZM57.2998 143.739H59.1492V151.822C59.1492 152.577 58.9848 153.217 58.656 153.741C58.3324 154.27 57.8777 154.671 57.2921 154.943C56.7064 155.22 56.0257 155.359 55.25 155.359C54.9161 155.359 54.5539 155.313 54.1635 155.22C53.7782 155.128 53.4057 154.982 53.0461 154.781C52.6916 154.586 52.3962 154.332 52.1599 154.018L53.0769 152.816C53.3543 153.14 53.6677 153.384 54.0171 153.548C54.3664 153.718 54.744 153.803 55.1498 153.803C55.5608 153.803 55.9102 153.726 56.1978 153.571C56.4907 153.422 56.7141 153.202 56.8683 152.909C57.0275 152.621 57.1071 152.267 57.1071 151.845V145.642L57.2998 143.739ZM51.6667 148.008V147.846C51.6667 147.209 51.7438 146.631 51.8979 146.112C52.052 145.588 52.2729 145.139 52.5606 144.764C52.8535 144.388 53.2054 144.098 53.6163 143.893C54.0325 143.687 54.5 143.584 55.0188 143.584C55.5685 143.584 56.0309 143.685 56.4059 143.885C56.7861 144.085 57.0994 144.37 57.346 144.74C57.5978 145.11 57.793 145.55 57.9317 146.058C58.0755 146.562 58.186 147.116 58.263 147.723V148.162C58.1911 148.753 58.0755 149.295 57.9163 149.788C57.7621 150.281 57.5567 150.712 57.2998 151.082C57.0429 151.447 56.7244 151.73 56.3443 151.93C55.9641 152.13 55.5171 152.231 55.0034 152.231C54.4897 152.231 54.0273 152.125 53.6163 151.915C53.2054 151.704 52.8535 151.409 52.5606 151.028C52.2729 150.648 52.052 150.201 51.8979 149.688C51.7438 149.174 51.6667 148.614 51.6667 148.008ZM53.7011 147.846V148.008C53.7011 148.367 53.7371 148.704 53.809 149.017C53.8809 149.331 53.9914 149.608 54.1404 149.849C54.2893 150.086 54.4768 150.271 54.7029 150.404C54.9289 150.538 55.1986 150.605 55.512 150.605C55.9333 150.605 56.2775 150.517 56.5446 150.343C56.8169 150.163 57.0224 149.919 57.1611 149.611C57.3049 149.297 57.3974 148.945 57.4385 148.555V147.345C57.4128 147.037 57.3563 146.752 57.269 146.49C57.1868 146.228 57.0712 146.002 56.9222 145.812C56.7732 145.621 56.5831 145.472 56.352 145.365C56.1208 145.257 55.8459 145.203 55.5274 145.203C55.2192 145.203 54.9495 145.272 54.7183 145.411C54.4871 145.544 54.297 145.732 54.1481 145.973C53.9991 146.215 53.8861 146.495 53.809 146.813C53.7371 147.132 53.7011 147.476 53.7011 147.846ZM63.1409 143.739V152.076H61.0988V143.739H63.1409ZM60.9601 141.558C60.9601 141.255 61.0629 141.003 61.2684 140.803C61.479 140.602 61.7615 140.502 62.116 140.502C62.4705 140.502 62.7505 140.602 62.956 140.803C63.1666 141.003 63.2719 141.255 63.2719 141.558C63.2719 141.856 63.1666 142.105 62.956 142.305C62.7505 142.506 62.4705 142.606 62.116 142.606C61.7615 142.606 61.479 142.506 61.2684 142.305C61.0629 142.105 60.9601 141.856 60.9601 141.558ZM67.0786 145.519V152.076H65.0443V143.739H66.9553L67.0786 145.519ZM66.755 147.607H66.1539C66.1591 147.001 66.2413 146.451 66.4005 145.958C66.5598 145.465 66.7832 145.041 67.0709 144.686C67.3638 144.332 67.7105 144.06 68.1112 143.87C68.5119 143.68 68.9589 143.584 69.4521 143.584C69.8528 143.584 70.215 143.641 70.5386 143.754C70.8623 143.867 71.1397 144.047 71.3708 144.293C71.6072 144.54 71.787 144.864 71.9103 145.264C72.0387 145.66 72.1029 146.148 72.1029 146.729V152.076H70.0531V146.713C70.0531 146.333 69.9966 146.032 69.8836 145.812C69.7757 145.591 69.6165 145.434 69.4058 145.341C69.2003 145.249 68.946 145.203 68.6429 145.203C68.3296 145.203 68.0547 145.267 67.8184 145.395C67.5872 145.519 67.392 145.691 67.2328 145.912C67.0786 146.133 66.9605 146.387 66.8783 146.675C66.7961 146.962 66.755 147.273 66.755 147.607ZM35.5686 164.488H34.4861V164.051H35.5686C35.7782 164.051 35.948 164.017 36.0778 163.95C36.2077 163.884 36.3023 163.791 36.3617 163.672C36.4229 163.553 36.4535 163.418 36.4535 163.266C36.4535 163.127 36.4229 162.996 36.3617 162.874C36.3023 162.751 36.2077 162.653 36.0778 162.579C35.948 162.503 35.7782 162.464 35.5686 162.464H34.6113V166.076H34.0743V162.025H35.5686C35.8747 162.025 36.1335 162.078 36.345 162.183C36.5565 162.289 36.7169 162.436 36.8264 162.623C36.9358 162.809 36.9906 163.021 36.9906 163.26C36.9906 163.52 36.9358 163.742 36.8264 163.925C36.7169 164.109 36.5565 164.249 36.345 164.346C36.1335 164.44 35.8747 164.488 35.5686 164.488ZM38.1509 161.802V166.076H37.6334V161.802H38.1509ZM40.2268 166.132C40.0172 166.132 39.8271 166.097 39.6564 166.026C39.4876 165.954 39.3419 165.853 39.2195 165.723C39.0989 165.593 39.0062 165.439 38.9412 165.261C38.8763 165.083 38.8438 164.888 38.8438 164.677V164.56C38.8438 164.315 38.88 164.097 38.9524 163.906C39.0247 163.713 39.123 163.55 39.2473 163.416C39.3716 163.283 39.5126 163.182 39.6703 163.113C39.828 163.044 39.9912 163.01 40.1601 163.01C40.3752 163.01 40.5608 163.047 40.7166 163.121C40.8743 163.195 41.0032 163.299 41.1034 163.433C41.2036 163.565 41.2778 163.72 41.326 163.9C41.3742 164.078 41.3984 164.273 41.3984 164.485V164.716H39.1499V164.296H40.8836V164.257C40.8761 164.123 40.8483 163.993 40.8001 163.867C40.7537 163.741 40.6795 163.637 40.5775 163.555C40.4754 163.474 40.3363 163.433 40.1601 163.433C40.0432 163.433 39.9356 163.458 39.8373 163.508C39.7389 163.556 39.6545 163.629 39.584 163.725C39.5135 163.822 39.4588 163.939 39.4199 164.078C39.3809 164.218 39.3614 164.378 39.3614 164.56V164.677C39.3614 164.82 39.3809 164.954 39.4199 165.08C39.4607 165.205 39.5191 165.314 39.5952 165.409C39.6731 165.503 39.7668 165.577 39.8762 165.631C39.9875 165.685 40.1137 165.712 40.2547 165.712C40.4365 165.712 40.5904 165.675 40.7166 165.601C40.8427 165.526 40.9531 165.427 41.0477 165.303L41.3594 165.551C41.2945 165.649 41.2119 165.743 41.1117 165.832C41.0116 165.921 40.8882 165.993 40.7416 166.049C40.5969 166.104 40.4253 166.132 40.2268 166.132ZM43.7748 165.562V164.012C43.7748 163.893 43.7507 163.79 43.7024 163.703C43.6561 163.614 43.5856 163.545 43.4909 163.497C43.3963 163.449 43.2795 163.425 43.1403 163.425C43.0105 163.425 42.8964 163.447 42.7981 163.491C42.7016 163.536 42.6255 163.594 42.5699 163.667C42.5161 163.739 42.4892 163.817 42.4892 163.9H41.9744C41.9744 163.793 42.0022 163.686 42.0579 163.58C42.1135 163.475 42.1933 163.379 42.2972 163.294C42.4029 163.207 42.5291 163.138 42.6756 163.088C42.824 163.036 42.9891 163.01 43.1709 163.01C43.3898 163.01 43.5828 163.047 43.7497 163.121C43.9186 163.195 44.0503 163.308 44.1449 163.458C44.2413 163.606 44.2896 163.793 44.2896 164.017V165.42C44.2896 165.52 44.2979 165.627 44.3146 165.74C44.3332 165.853 44.3601 165.95 44.3953 166.032V166.076H43.8583C43.8323 166.017 43.8119 165.938 43.797 165.84C43.7822 165.74 43.7748 165.647 43.7748 165.562ZM43.8638 164.251L43.8694 164.613H43.349C43.2025 164.613 43.0717 164.625 42.9567 164.649C42.8417 164.671 42.7452 164.706 42.6673 164.752C42.5894 164.798 42.53 164.857 42.4892 164.927C42.4484 164.996 42.428 165.077 42.428 165.169C42.428 165.264 42.4493 165.35 42.492 165.428C42.5346 165.506 42.5986 165.568 42.684 165.615C42.7712 165.659 42.8778 165.681 43.004 165.681C43.1617 165.681 43.3008 165.648 43.4214 165.581C43.542 165.514 43.6375 165.433 43.708 165.336C43.7803 165.24 43.8193 165.146 43.8249 165.055L44.0447 165.303C44.0317 165.381 43.9965 165.467 43.939 165.562C43.8815 165.656 43.8045 165.747 43.708 165.834C43.6134 165.92 43.5002 165.991 43.3685 166.049C43.2386 166.104 43.0921 166.132 42.9288 166.132C42.7248 166.132 42.5458 166.092 42.3918 166.012C42.2397 165.933 42.1209 165.826 42.0356 165.692C41.9521 165.557 41.9104 165.406 41.9104 165.239C41.9104 165.077 41.9419 164.936 42.005 164.813C42.0681 164.689 42.159 164.586 42.2777 164.504C42.3964 164.421 42.5393 164.358 42.7062 164.315C42.8732 164.272 43.0596 164.251 43.2655 164.251H43.8638ZM46.8525 165.278C46.8525 165.204 46.8358 165.135 46.8024 165.072C46.7708 165.007 46.705 164.949 46.6048 164.897C46.5065 164.843 46.3581 164.796 46.1596 164.757C45.9926 164.722 45.8414 164.68 45.706 164.632C45.5724 164.584 45.4583 164.526 45.3637 164.457C45.2709 164.388 45.1995 164.308 45.1494 164.215C45.0993 164.122 45.0743 164.014 45.0743 163.889C45.0743 163.771 45.1003 163.658 45.1522 163.553C45.206 163.447 45.2812 163.353 45.3776 163.271C45.4759 163.19 45.5937 163.126 45.731 163.079C45.8683 163.033 46.0214 163.01 46.1902 163.01C46.4313 163.01 46.6373 163.053 46.8079 163.138C46.9786 163.223 47.1094 163.337 47.2003 163.48C47.2912 163.621 47.3366 163.778 47.3366 163.95H46.8218C46.8218 163.867 46.7968 163.786 46.7467 163.708C46.6985 163.629 46.6271 163.563 46.5324 163.511C46.4397 163.459 46.3256 163.433 46.1902 163.433C46.0473 163.433 45.9314 163.455 45.8423 163.5C45.7551 163.542 45.6911 163.597 45.6503 163.664C45.6114 163.731 45.5919 163.801 45.5919 163.875C45.5919 163.931 45.6012 163.981 45.6197 164.026C45.6401 164.068 45.6754 164.108 45.7255 164.145C45.7755 164.18 45.846 164.214 45.9369 164.245C46.0278 164.277 46.1438 164.309 46.2848 164.34C46.5315 164.396 46.7347 164.462 46.8942 164.54C47.0537 164.618 47.1725 164.714 47.2504 164.827C47.3283 164.94 47.3673 165.077 47.3673 165.239C47.3673 165.371 47.3394 165.491 47.2838 165.601C47.23 165.71 47.1511 165.805 47.0472 165.884C46.9452 165.962 46.8228 166.024 46.6799 166.068C46.5389 166.111 46.3803 166.132 46.2041 166.132C45.9388 166.132 45.7143 166.085 45.5307 165.99C45.347 165.896 45.2079 165.773 45.1133 165.623C45.0187 165.473 44.9713 165.314 44.9713 165.147H45.4889C45.4963 165.288 45.5372 165.4 45.6114 165.484C45.6856 165.565 45.7765 165.624 45.8841 165.659C45.9917 165.692 46.0983 165.709 46.2041 165.709C46.3451 165.709 46.4629 165.691 46.5575 165.653C46.654 165.616 46.7272 165.565 46.7773 165.5C46.8274 165.435 46.8525 165.361 46.8525 165.278ZM49.2929 166.132C49.0833 166.132 48.8931 166.097 48.7224 166.026C48.5536 165.954 48.408 165.853 48.2855 165.723C48.165 165.593 48.0722 165.439 48.0073 165.261C47.9423 165.083 47.9099 164.888 47.9099 164.677V164.56C47.9099 164.315 47.9461 164.097 48.0184 163.906C48.0908 163.713 48.1891 163.55 48.3134 163.416C48.4377 163.283 48.5787 163.182 48.7363 163.113C48.894 163.044 49.0573 163.01 49.2261 163.01C49.4413 163.01 49.6268 163.047 49.7826 163.121C49.9403 163.195 50.0693 163.299 50.1694 163.433C50.2696 163.565 50.3438 163.72 50.3921 163.9C50.4403 164.078 50.4644 164.273 50.4644 164.485V164.716H48.216V164.296H49.9496V164.257C49.9422 164.123 49.9144 163.993 49.8661 163.867C49.8197 163.741 49.7455 163.637 49.6435 163.555C49.5415 163.474 49.4023 163.433 49.2261 163.433C49.1092 163.433 49.0016 163.458 48.9033 163.508C48.805 163.556 48.7206 163.629 48.6501 163.725C48.5796 163.822 48.5249 163.939 48.4859 164.078C48.4469 164.218 48.4275 164.378 48.4275 164.56V164.677C48.4275 164.82 48.4469 164.954 48.4859 165.08C48.5267 165.205 48.5851 165.314 48.6612 165.409C48.7391 165.503 48.8328 165.577 48.9423 165.631C49.0536 165.685 49.1797 165.712 49.3207 165.712C49.5025 165.712 49.6565 165.675 49.7826 165.601C49.9088 165.526 50.0192 165.427 50.1138 165.303L50.4254 165.551C50.3605 165.649 50.278 165.743 50.1778 165.832C50.0776 165.921 49.9542 165.993 49.8077 166.049C49.663 166.104 49.4914 166.132 49.2929 166.132ZM54.2322 165.278C54.2322 165.204 54.2155 165.135 54.1821 165.072C54.1506 165.007 54.0847 164.949 53.9845 164.897C53.8862 164.843 53.7378 164.796 53.5393 164.757C53.3723 164.722 53.2211 164.68 53.0857 164.632C52.9521 164.584 52.838 164.526 52.7434 164.457C52.6507 164.388 52.5793 164.308 52.5292 164.215C52.4791 164.122 52.454 164.014 52.454 163.889C52.454 163.771 52.48 163.658 52.5319 163.553C52.5857 163.447 52.6609 163.353 52.7573 163.271C52.8557 163.19 52.9735 163.126 53.1108 163.079C53.248 163.033 53.4011 163.01 53.5699 163.01C53.8111 163.01 54.017 163.053 54.1877 163.138C54.3583 163.223 54.4891 163.337 54.58 163.48C54.6709 163.621 54.7164 163.778 54.7164 163.95H54.2016C54.2016 163.867 54.1765 163.786 54.1264 163.708C54.0782 163.629 54.0068 163.563 53.9122 163.511C53.8194 163.459 53.7053 163.433 53.5699 163.433C53.4271 163.433 53.3111 163.455 53.2221 163.5C53.1349 163.542 53.0709 163.597 53.0301 163.664C52.9911 163.731 52.9716 163.801 52.9716 163.875C52.9716 163.931 52.9809 163.981 52.9994 164.026C53.0198 164.068 53.0551 164.108 53.1052 164.145C53.1553 164.18 53.2258 164.214 53.3167 164.245C53.4076 164.277 53.5235 164.309 53.6645 164.34C53.9112 164.396 54.1144 164.462 54.2739 164.54C54.4335 164.618 54.5522 164.714 54.6301 164.827C54.708 164.94 54.747 165.077 54.747 165.239C54.747 165.371 54.7192 165.491 54.6635 165.601C54.6097 165.71 54.5309 165.805 54.427 165.884C54.3249 165.962 54.2025 166.024 54.0597 166.068C53.9187 166.111 53.76 166.132 53.5838 166.132C53.3185 166.132 53.0941 166.085 52.9104 165.99C52.7267 165.896 52.5876 165.773 52.493 165.623C52.3984 165.473 52.3511 165.314 52.3511 165.147H52.8687C52.8761 165.288 52.9169 165.4 52.9911 165.484C53.0653 165.565 53.1562 165.624 53.2638 165.659C53.3714 165.692 53.4781 165.709 53.5838 165.709C53.7248 165.709 53.8426 165.691 53.9372 165.653C54.0337 165.616 54.107 165.565 54.157 165.5C54.2071 165.435 54.2322 165.361 54.2322 165.278ZM55.9825 163.066V166.076H55.4649V163.066H55.9825ZM55.426 162.267C55.426 162.183 55.451 162.113 55.5011 162.055C55.553 161.998 55.6291 161.969 55.7293 161.969C55.8276 161.969 55.9027 161.998 55.9547 162.055C56.0085 162.113 56.0354 162.183 56.0354 162.267C56.0354 162.347 56.0085 162.415 55.9547 162.473C55.9027 162.529 55.8276 162.556 55.7293 162.556C55.6291 162.556 55.553 162.529 55.5011 162.473C55.451 162.415 55.426 162.347 55.426 162.267ZM58.7596 163.066H59.2271V166.012C59.2271 166.278 59.1733 166.504 59.0657 166.691C58.9581 166.879 58.8079 167.021 58.6149 167.117C58.4239 167.215 58.2031 167.265 57.9527 167.265C57.8488 167.265 57.7263 167.248 57.5853 167.215C57.4462 167.183 57.3089 167.128 57.1735 167.05C57.0399 166.974 56.9277 166.871 56.8368 166.742L57.1067 166.435C57.2329 166.588 57.3646 166.693 57.5019 166.753C57.641 166.812 57.7783 166.842 57.9137 166.842C58.0769 166.842 58.2179 166.811 58.3367 166.75C58.4554 166.689 58.5472 166.598 58.6122 166.477C58.6789 166.358 58.7123 166.212 58.7123 166.037V163.728L58.7596 163.066ZM56.6865 164.604V164.546C56.6865 164.316 56.7134 164.107 56.7672 163.92C56.8229 163.731 56.9017 163.568 57.0038 163.433C57.1076 163.297 57.2329 163.194 57.3794 163.121C57.526 163.047 57.6911 163.01 57.8747 163.01C58.064 163.01 58.2291 163.043 58.3701 163.11C58.5129 163.175 58.6335 163.271 58.7318 163.397C58.832 163.521 58.9108 163.671 58.9683 163.848C59.0259 164.024 59.0657 164.223 59.088 164.446V164.702C59.0676 164.923 59.0277 165.121 58.9683 165.297C58.9108 165.474 58.832 165.624 58.7318 165.748C58.6335 165.872 58.5129 165.968 58.3701 166.035C58.2272 166.1 58.0603 166.132 57.8692 166.132C57.6892 166.132 57.526 166.094 57.3794 166.018C57.2347 165.942 57.1104 165.835 57.0065 165.698C56.9026 165.561 56.8229 165.399 56.7672 165.214C56.7134 165.026 56.6865 164.823 56.6865 164.604ZM57.2013 164.546V164.604C57.2013 164.755 57.2162 164.896 57.2458 165.027C57.2774 165.159 57.3247 165.275 57.3878 165.375C57.4527 165.475 57.5352 165.554 57.6354 165.612C57.7356 165.667 57.8553 165.695 57.9944 165.695C58.1651 165.695 58.3061 165.659 58.4174 165.587C58.5287 165.514 58.6168 165.419 58.6817 165.3C58.7485 165.181 58.8005 165.052 58.8376 164.913V164.243C58.8171 164.141 58.7856 164.042 58.7429 163.948C58.7021 163.851 58.6483 163.766 58.5815 163.692C58.5166 163.616 58.4359 163.555 58.3395 163.511C58.243 163.466 58.1298 163.444 58 163.444C57.859 163.444 57.7375 163.474 57.6354 163.533C57.5352 163.591 57.4527 163.67 57.3878 163.772C57.3247 163.873 57.2774 163.989 57.2458 164.123C57.2162 164.255 57.2013 164.396 57.2013 164.546ZM60.5239 163.708V166.076H60.0091V163.066H60.496L60.5239 163.708ZM60.4014 164.457L60.1872 164.449C60.189 164.243 60.2196 164.052 60.279 163.878C60.3384 163.702 60.4218 163.549 60.5294 163.419C60.637 163.289 60.765 163.189 60.9135 163.118C61.0637 163.046 61.2298 163.01 61.4116 163.01C61.56 163.01 61.6935 163.03 61.8123 163.071C61.931 163.11 62.0321 163.173 62.1156 163.26C62.2009 163.348 62.2658 163.461 62.3104 163.6C62.3549 163.737 62.3772 163.905 62.3772 164.104V166.076H61.8596V164.098C61.8596 163.94 61.8364 163.814 61.79 163.719C61.7436 163.623 61.6759 163.553 61.5869 163.511C61.4978 163.466 61.3884 163.444 61.2585 163.444C61.1305 163.444 61.0136 163.471 60.9079 163.525C60.804 163.579 60.714 163.653 60.638 163.747C60.5638 163.842 60.5053 163.95 60.4627 164.073C60.4218 164.193 60.4014 164.321 60.4014 164.457ZM65.132 163.066V166.076H64.6144V163.066H65.132ZM64.5755 162.267C64.5755 162.183 64.6005 162.113 64.6506 162.055C64.7026 161.998 64.7786 161.969 64.8788 161.969C64.9771 161.969 65.0523 161.998 65.1042 162.055C65.158 162.113 65.1849 162.183 65.1849 162.267C65.1849 162.347 65.158 162.415 65.1042 162.473C65.0523 162.529 64.9771 162.556 64.8788 162.556C64.7786 162.556 64.7026 162.529 64.6506 162.473C64.6005 162.415 64.5755 162.347 64.5755 162.267ZM66.4733 163.708V166.076H65.9585V163.066H66.4455L66.4733 163.708ZM66.3509 164.457L66.1366 164.449C66.1384 164.243 66.169 164.052 66.2284 163.878C66.2878 163.702 66.3713 163.549 66.4789 163.419C66.5865 163.289 66.7145 163.189 66.8629 163.118C67.0131 163.046 67.1792 163.01 67.361 163.01C67.5094 163.01 67.643 163.03 67.7617 163.071C67.8804 163.11 67.9815 163.173 68.065 163.26C68.1503 163.348 68.2153 163.461 68.2598 163.6C68.3043 163.737 68.3266 163.905 68.3266 164.104V166.076H67.809V164.098C67.809 163.94 67.7858 163.814 67.7394 163.719C67.693 163.623 67.6253 163.553 67.5363 163.511C67.4472 163.466 67.3378 163.444 67.2079 163.444C67.0799 163.444 66.963 163.471 66.8573 163.525C66.7534 163.579 66.6634 163.653 66.5874 163.747C66.5132 163.842 66.4547 163.95 66.4121 164.073C66.3713 164.193 66.3509 164.321 66.3509 164.457ZM71.7827 163.066V163.461H70.1548V163.066H71.7827ZM70.7058 162.334H71.2206V165.331C71.2206 165.433 71.2363 165.51 71.2679 165.562C71.2994 165.614 71.3402 165.648 71.3903 165.665C71.4404 165.681 71.4942 165.69 71.5517 165.69C71.5944 165.69 71.6389 165.686 71.6853 165.679C71.7335 165.669 71.7697 165.662 71.7938 165.656L71.7966 166.076C71.7558 166.089 71.702 166.101 71.6352 166.113C71.5703 166.126 71.4914 166.132 71.3987 166.132C71.2725 166.132 71.1566 166.107 71.0508 166.057C70.9451 166.007 70.8607 165.923 70.7976 165.807C70.7364 165.688 70.7058 165.528 70.7058 165.328V162.334ZM72.1945 164.604V164.54C72.1945 164.323 72.2261 164.122 72.2891 163.937C72.3522 163.749 72.4431 163.587 72.5618 163.45C72.6806 163.31 72.8243 163.203 72.9932 163.127C73.162 163.049 73.3512 163.01 73.5608 163.01C73.7723 163.01 73.9625 163.049 74.1313 163.127C74.302 163.203 74.4467 163.31 74.5654 163.45C74.686 163.587 74.7778 163.749 74.8409 163.937C74.904 164.122 74.9355 164.323 74.9355 164.54V164.604C74.9355 164.821 74.904 165.023 74.8409 165.208C74.7778 165.394 74.686 165.556 74.5654 165.695C74.4467 165.832 74.3029 165.94 74.1341 166.018C73.9671 166.094 73.7779 166.132 73.5664 166.132C73.3549 166.132 73.1648 166.094 72.9959 166.018C72.8271 165.94 72.6824 165.832 72.5618 165.695C72.4431 165.556 72.3522 165.394 72.2891 165.208C72.2261 165.023 72.1945 164.821 72.1945 164.604ZM72.7093 164.54V164.604C72.7093 164.755 72.727 164.897 72.7622 165.03C72.7974 165.162 72.8503 165.279 72.9208 165.381C72.9932 165.483 73.0831 165.564 73.1907 165.623C73.2983 165.68 73.4236 165.709 73.5664 165.709C73.7074 165.709 73.8308 165.68 73.9365 165.623C74.0441 165.564 74.1331 165.483 74.2036 165.381C74.2741 165.279 74.327 165.162 74.3623 165.03C74.3994 164.897 74.4179 164.755 74.4179 164.604V164.54C74.4179 164.392 74.3994 164.252 74.3623 164.12C74.327 163.987 74.2732 163.869 74.2009 163.767C74.1304 163.663 74.0413 163.581 73.9337 163.522C73.828 163.463 73.7037 163.433 73.5608 163.433C73.4198 163.433 73.2955 163.463 73.188 163.522C73.0822 163.581 72.9932 163.663 72.9208 163.767C72.8503 163.869 72.7974 163.987 72.7622 164.12C72.727 164.252 72.7093 164.392 72.7093 164.54ZM78.1996 165.709C78.322 165.709 78.4352 165.684 78.5391 165.634C78.643 165.584 78.7283 165.515 78.7951 165.428C78.8619 165.339 78.8999 165.238 78.9092 165.125H79.3989C79.3897 165.303 79.3294 165.469 79.2181 165.623C79.1086 165.775 78.9648 165.898 78.7868 165.993C78.6087 166.086 78.4129 166.132 78.1996 166.132C77.9733 166.132 77.7757 166.092 77.6069 166.012C77.4399 165.933 77.3008 165.823 77.1895 165.684C77.08 165.545 76.9975 165.385 76.9418 165.205C76.888 165.024 76.8611 164.832 76.8611 164.629V164.513C76.8611 164.31 76.888 164.119 76.9418 163.939C76.9975 163.758 77.08 163.597 77.1895 163.458C77.3008 163.319 77.4399 163.209 77.6069 163.13C77.7757 163.05 77.9733 163.01 78.1996 163.01C78.4352 163.01 78.6411 163.058 78.8174 163.155C78.9936 163.249 79.1318 163.379 79.232 163.544C79.334 163.707 79.3897 163.893 79.3989 164.101H78.9092C78.8999 163.976 78.8647 163.864 78.8034 163.764C78.7441 163.664 78.6625 163.584 78.5586 163.525C78.4565 163.463 78.3369 163.433 78.1996 163.433C78.0419 163.433 77.9093 163.464 77.8017 163.527C77.6959 163.589 77.6115 163.672 77.5484 163.778C77.4872 163.882 77.4427 163.998 77.4149 164.126C77.3889 164.252 77.3759 164.381 77.3759 164.513V164.629C77.3759 164.761 77.3889 164.891 77.4149 165.019C77.4409 165.147 77.4844 165.263 77.5457 165.367C77.6087 165.471 77.6931 165.554 77.7989 165.617C77.9065 165.679 78.0401 165.709 78.1996 165.709ZM79.8414 164.604V164.54C79.8414 164.323 79.8729 164.122 79.936 163.937C79.9991 163.749 80.09 163.587 80.2087 163.45C80.3274 163.31 80.4712 163.203 80.64 163.127C80.8088 163.049 80.9981 163.01 81.2077 163.01C81.4192 163.01 81.6093 163.049 81.7782 163.127C81.9488 163.203 82.0935 163.31 82.2123 163.45C82.3328 163.587 82.4247 163.749 82.4877 163.937C82.5508 164.122 82.5824 164.323 82.5824 164.54V164.604C82.5824 164.821 82.5508 165.023 82.4877 165.208C82.4247 165.394 82.3328 165.556 82.2123 165.695C82.0935 165.832 81.9498 165.94 81.7809 166.018C81.614 166.094 81.4248 166.132 81.2133 166.132C81.0018 166.132 80.8116 166.094 80.6428 166.018C80.474 165.94 80.3293 165.832 80.2087 165.695C80.09 165.556 79.9991 165.394 79.936 165.208C79.8729 165.023 79.8414 164.821 79.8414 164.604ZM80.3562 164.54V164.604C80.3562 164.755 80.3738 164.897 80.4091 165.03C80.4443 165.162 80.4972 165.279 80.5677 165.381C80.64 165.483 80.73 165.564 80.8376 165.623C80.9452 165.68 81.0704 165.709 81.2133 165.709C81.3543 165.709 81.4776 165.68 81.5834 165.623C81.691 165.564 81.78 165.483 81.8505 165.381C81.921 165.279 81.9739 165.162 82.0091 165.03C82.0462 164.897 82.0648 164.755 82.0648 164.604V164.54C82.0648 164.392 82.0462 164.252 82.0091 164.12C81.9739 163.987 81.9201 163.869 81.8477 163.767C81.7772 163.663 81.6882 163.581 81.5806 163.522C81.4748 163.463 81.3505 163.433 81.2077 163.433C81.0667 163.433 80.9424 163.463 80.8348 163.522C80.7291 163.581 80.64 163.663 80.5677 163.767C80.4972 163.869 80.4443 163.987 80.4091 164.12C80.3738 164.252 80.3562 164.392 80.3562 164.54ZM83.7427 163.708V166.076H83.2279V163.066H83.7149L83.7427 163.708ZM83.6203 164.457L83.406 164.449C83.4079 164.243 83.4385 164.052 83.4979 163.878C83.5572 163.702 83.6407 163.549 83.7483 163.419C83.8559 163.289 83.9839 163.189 84.1323 163.118C84.2826 163.046 84.4486 163.01 84.6304 163.01C84.7788 163.01 84.9124 163.03 85.0311 163.071C85.1499 163.11 85.251 163.173 85.3344 163.26C85.4198 163.348 85.4847 163.461 85.5292 163.6C85.5738 163.737 85.596 163.905 85.596 164.104V166.076H85.0784V164.098C85.0784 163.94 85.0553 163.814 85.0089 163.719C84.9625 163.623 84.8948 163.553 84.8057 163.511C84.7167 163.466 84.6072 163.444 84.4774 163.444C84.3494 163.444 84.2325 163.471 84.1268 163.525C84.0229 163.579 83.9329 163.653 83.8568 163.747C83.7826 163.842 83.7242 163.95 83.6815 164.073C83.6407 164.193 83.6203 164.321 83.6203 164.457ZM87.6385 163.066V163.461H86.0106V163.066H87.6385ZM86.5616 162.334H87.0764V165.331C87.0764 165.433 87.0922 165.51 87.1237 165.562C87.1553 165.614 87.1961 165.648 87.2462 165.665C87.2963 165.681 87.3501 165.69 87.4076 165.69C87.4502 165.69 87.4948 165.686 87.5411 165.679C87.5894 165.669 87.6255 165.662 87.6497 165.656L87.6524 166.076C87.6116 166.089 87.5578 166.101 87.491 166.113C87.4261 166.126 87.3473 166.132 87.2545 166.132C87.1284 166.132 87.0124 166.107 86.9067 166.057C86.8009 166.007 86.7165 165.923 86.6535 165.807C86.5922 165.688 86.5616 165.528 86.5616 165.328V162.334ZM88.8017 163.066V166.076H88.2841V163.066H88.8017ZM88.2452 162.267C88.2452 162.183 88.2702 162.113 88.3203 162.055C88.3722 161.998 88.4483 161.969 88.5485 161.969C88.6468 161.969 88.7219 161.998 88.7739 162.055C88.8277 162.113 88.8546 162.183 88.8546 162.267C88.8546 162.347 88.8277 162.415 88.7739 162.473C88.7219 162.529 88.6468 162.556 88.5485 162.556C88.4483 162.556 88.3722 162.529 88.3203 162.473C88.2702 162.415 88.2452 162.347 88.2452 162.267ZM90.143 163.708V166.076H89.6282V163.066H90.1151L90.143 163.708ZM90.0205 164.457L89.8063 164.449C89.8081 164.243 89.8387 164.052 89.8981 163.878C89.9574 163.702 90.0409 163.549 90.1485 163.419C90.2561 163.289 90.3841 163.189 90.5325 163.118C90.6828 163.046 90.8488 163.01 91.0306 163.01C91.1791 163.01 91.3126 163.03 91.4314 163.071C91.5501 163.11 91.6512 163.173 91.7347 163.26C91.82 163.348 91.8849 163.461 91.9295 163.6C91.974 163.737 91.9962 163.905 91.9962 164.104V166.076H91.4787V164.098C91.4787 163.94 91.4555 163.814 91.4091 163.719C91.3627 163.623 91.295 163.553 91.206 163.511C91.1169 163.466 91.0075 163.444 90.8776 163.444C90.7496 163.444 90.6327 163.471 90.527 163.525C90.4231 163.579 90.3331 163.653 90.2571 163.747C90.1828 163.842 90.1244 163.95 90.0817 164.073C90.0409 164.193 90.0205 164.321 90.0205 164.457ZM94.6203 165.381V163.066H95.1379V166.076H94.6454L94.6203 165.381ZM94.7177 164.746L94.932 164.741C94.932 164.941 94.9107 165.127 94.868 165.297C94.8272 165.466 94.7604 165.613 94.6676 165.737C94.5749 165.861 94.4534 165.959 94.3031 166.029C94.1528 166.098 93.9701 166.132 93.7549 166.132C93.6084 166.132 93.4739 166.111 93.3514 166.068C93.2308 166.025 93.1269 165.96 93.0398 165.871C92.9526 165.781 92.8848 165.666 92.8366 165.523C92.7902 165.38 92.767 165.208 92.767 165.008V163.066H93.2818V165.013C93.2818 165.149 93.2967 165.261 93.3264 165.35C93.3579 165.437 93.3996 165.507 93.4516 165.559C93.5054 165.609 93.5648 165.644 93.6297 165.665C93.6965 165.685 93.7651 165.695 93.8356 165.695C94.0545 165.695 94.228 165.653 94.356 165.57C94.484 165.485 94.5758 165.371 94.6315 165.228C94.689 165.083 94.7177 164.923 94.7177 164.746ZM97.1721 166.132C96.9624 166.132 96.7723 166.097 96.6016 166.026C96.4328 165.954 96.2872 165.853 96.1647 165.723C96.0441 165.593 95.9514 165.439 95.8865 165.261C95.8215 165.083 95.7891 164.888 95.7891 164.677V164.56C95.7891 164.315 95.8252 164.097 95.8976 163.906C95.9699 163.713 96.0683 163.55 96.1926 163.416C96.3169 163.283 96.4578 163.182 96.6155 163.113C96.7732 163.044 96.9365 163.01 97.1053 163.01C97.3205 163.01 97.506 163.047 97.6618 163.121C97.8195 163.195 97.9484 163.299 98.0486 163.433C98.1488 163.565 98.223 163.72 98.2712 163.9C98.3195 164.078 98.3436 164.273 98.3436 164.485V164.716H96.0952V164.296H97.8288V164.257C97.8214 164.123 97.7935 163.993 97.7453 163.867C97.6989 163.741 97.6247 163.637 97.5227 163.555C97.4207 163.474 97.2815 163.433 97.1053 163.433C96.9884 163.433 96.8808 163.458 96.7825 163.508C96.6842 163.556 96.5998 163.629 96.5293 163.725C96.4588 163.822 96.404 163.939 96.3651 164.078C96.3261 164.218 96.3066 164.378 96.3066 164.56V164.677C96.3066 164.82 96.3261 164.954 96.3651 165.08C96.4059 165.205 96.4643 165.314 96.5404 165.409C96.6183 165.503 96.712 165.577 96.8214 165.631C96.9328 165.685 97.0589 165.712 97.1999 165.712C97.3817 165.712 97.5357 165.675 97.6618 165.601C97.788 165.526 97.8984 165.427 97.993 165.303L98.3046 165.551C98.2397 165.649 98.1571 165.743 98.057 165.832C97.9568 165.921 97.8334 165.993 97.6869 166.049C97.5422 166.104 97.3706 166.132 97.1721 166.132ZM98.953 165.804C98.953 165.717 98.9799 165.643 99.0337 165.584C99.0894 165.523 99.1691 165.492 99.273 165.492C99.3769 165.492 99.4557 165.523 99.5095 165.584C99.5652 165.643 99.593 165.717 99.593 165.804C99.593 165.889 99.5652 165.961 99.5095 166.021C99.4557 166.08 99.3769 166.11 99.273 166.11C99.1691 166.11 99.0894 166.08 99.0337 166.021C98.9799 165.961 98.953 165.889 98.953 165.804Z" fill="white"/>
<path d="M94.9848 118.907L83.5231 101.895H106.442L94.9848 118.907ZM87.789 104.197L94.9848 114.871L102.232 104.197H87.789Z" fill="white"/>
<path d="M107.834 49.5231H81.437L68.2362 72.3854L81.437 95.2477H107.839L121.039 72.3854L107.834 49.5231ZM106.512 92.9601H82.7543L70.8754 72.3854L82.7543 51.8107H106.512L118.391 72.3854L106.512 92.9601Z" fill="white"/>
<path d="M95.4816 72.9667L88.6327 84.8221H102.251L109.095 72.9667H95.4816Z" fill="white"/>
<path d="M87.1233 60.4315L80.1619 72.4792L87.1983 84.658L94.155 72.6057L87.1233 60.4315Z" fill="white"/>
<path d="M102.012 59.6674H88.2531L95.2472 71.7759H109.011L102.012 59.6674Z" fill="white"/>
</g>
</g>
<defs>
<filter id="filter0_d_201_222" x="9.28216" y="7" width="178.405" height="377.431" filterUnits="userSpaceOnUse" color-interpolation-filters="sRGB">
<feFlood flood-opacity="0" result="BackgroundImageFix"/>
<feColorMatrix in="SourceAlpha" type="matrix" values="0 0 0 0 0 0 0 0 0 0 0 0 0 0 0 0 0 0 127 0" result="hardAlpha"/>
<feOffset dy="3.71784"/>
<feGaussianBlur stdDeviation="1.85892"/>
<feComposite in2="hardAlpha" operator="out"/>
<feColorMatrix type="matrix" values="0 0 0 0 0 0 0 0 0 0 0 0 0 0 0 0 0 0 0.25 0"/>
<feBlend mode="normal" in2="BackgroundImageFix" result="effect1_dropShadow_201_222"/>
<feBlend mode="normal" in="SourceGraphic" in2="effect1_dropShadow_201_222" result="shape"/>
</filter>
<filter id="filter1_d_201_222" x="30.9737" y="240.658" width="135.022" height="25.4262" filterUnits="userSpaceOnUse" color-interpolation-filters="sRGB">
<feFlood flood-opacity="0" result="BackgroundImageFix"/>
<feColorMatrix in="SourceAlpha" type="matrix" values="0 0 0 0 0 0 0 0 0 0 0 0 0 0 0 0 0 0 127 0" result="hardAlpha"/>
<feOffset dy="0.438383"/>
<feGaussianBlur stdDeviation="0.876765"/>
<feComposite in2="hardAlpha" operator="out"/>
<feColorMatrix type="matrix" values="0 0 0 0 0 0 0 0 0 0 0 0 0 0 0 0 0 0 0.25 0"/>
<feBlend mode="normal" in2="BackgroundImageFix" result="effect1_dropShadow_201_222"/>
<feBlend mode="normal" in="SourceGraphic" in2="effect1_dropShadow_201_222" result="shape"/>
</filter>
<linearGradient id="paint0_linear_201_222" x1="170.969" y1="0" x2="1.78547e-05" y2="373.064" gradientUnits="userSpaceOnUse">
<stop stop-color="#0047FF"/>
<stop offset="1" stop-color="#00B3EC"/>
</linearGradient>
</defs>
</svg>
