<svg xmlns="http://www.w3.org/2000/svg" version="1.1" xmlns:xlink="http://www.w3.org/1999/xlink" xmlns:svgjs="http://svgjs.com/svgjs" width="512" height="512" x="0" y="0" viewBox="0 0 512 512" style="enable-background:new 0 0 512 512" xml:space="preserve"><g><path d="m301.325 233.51 1.908 2.882.502-.351.565-.9z" fill="#ffffff" data-original="#000000"></path><path d="M312.653 45.057H209.547c-83.595 0-151.487 68.6-151.487 153.066v104.182c0 84.468 67.892 153.067 151.487 153.067h103.106c83.596 0 151.487-68.6 151.487-153.067V198.124c0-84.468-67.891-153.067-151.487-153.067zm-54.003 113.73 87.87 73.112-14.566 17.547-87.938-73.111zm-33.04 47.635 103.825 48.41-9.617 20.736-103.757-48.275zm-20.416 52.244 111.817 23.718-4.665 22.38-111.816-23.519zm-6.217 50.707h113.375v23.049H198.977zm159.967 69.146h-206.56v-90.658h22.974v67.977H335.97v-67.977h22.973zm-7.557-150.585-68.544-92.201 18.428-13.823 68.545 92.2z" fill="#ffffff" data-original="#000000"></path></g></svg>