<svg xmlns="http://www.w3.org/2000/svg" version="1.1" xmlns:xlink="http://www.w3.org/1999/xlink" xmlns:svgjs="http://svgjs.com/svgjs" width="512" height="512" x="0" y="0" viewBox="0 0 511.997 511.997" style="enable-background:new 0 0 512 512" xml:space="preserve"><g><path d="m506.76 242.828-118.4-125.44c-7.277-7.718-19.424-8.07-27.142-.787-7.706 7.277-8.064 19.43-.781 27.142l105.965 112.256-105.965 112.269c-7.283 7.712-6.925 19.859.781 27.142a19.151 19.151 0 0 0 13.178 5.235 19.172 19.172 0 0 0 13.965-6.01l118.4-125.446c6.981-7.404 6.981-18.963-.001-26.361zM151.566 368.262 45.608 255.999l105.958-112.262c7.277-7.712 6.925-19.866-.787-27.142-7.706-7.277-19.866-6.925-27.142.787l-118.4 125.44c-6.982 7.398-6.982 18.963 0 26.362L123.643 394.63c3.776 4 8.864 6.016 13.965 6.016 4.723 0 9.466-1.741 13.171-5.242 7.719-7.277 8.064-19.43.787-27.142zM287.061 52.697c-10.477-1.587-20.282 5.606-21.882 16.083l-56.32 368.64c-1.6 10.483 5.6 20.282 16.083 21.882.986.147 1.958.218 2.925.218 9.325 0 17.504-6.803 18.957-16.301l56.32-368.64c1.6-10.484-5.6-20.282-16.083-21.882z" fill="#ffffff" data-original="#000000"></path></g></svg>