<svg xmlns="http://www.w3.org/2000/svg" version="1.1" xmlns:xlink="http://www.w3.org/1999/xlink" xmlns:svgjs="http://svgjs.com/svgjs" width="512" height="512" x="0" y="0" viewBox="0 0 77.244 77.244" style="enable-background:new 0 0 512 512" xml:space="preserve" class=""><g><path d="M75.489 54.422H64.236L55.95 39.518l4.74-5.916a5 5 0 0 0 1.018-3.757 4.88 4.88 0 0 0-8.777-2.212l-7.689 10.112a2.705 2.705 0 0 0-.088-.755 3.512 3.512 0 0 0-2.704-2.546 15.133 15.133 0 0 0-2.335-.263 1.889 1.889 0 0 0-.527-.527l-5.267-3.511a1.755 1.755 0 1 0-1.931 2.914l2.721 1.861a14.184 14.184 0 0 0-3.616 1.949l-6.267 4.477-1.388-2.774-5.267-10.446.737-.035c7.756.027 14.066-6.239 14.093-13.996C33.431 6.337 27.165.027 19.408 0 11.652-.027 5.342 6.239 5.315 13.996a14.045 14.045 0 0 0 4.446 10.301A25.349 25.349 0 0 0 0 44.258V63.2c0 7.757 6.288 14.044 14.044 14.044h19.311c.97 0 1.756-.786 1.756-1.756v-5.267a5.267 5.267 0 0 1 5.267-5.267h21.067a5.267 5.267 0 0 1 5.267 5.267v5.267c0 .97.786 1.756 1.756 1.756h7.022c.97 0 1.756-.786 1.756-1.756v-19.31a1.759 1.759 0 0 0-1.757-1.756zm-15.273 0H44.029l9.55-11.938zm-4.424-24.7a1.372 1.372 0 0 1 1.088-.527 1.32 1.32 0 0 1 .755.228c.323.202.541.536.597.913.061.381-.041.769-.281 1.071l-18.1 22.629a1.089 1.089 0 0 1-.825.386 1.017 1.017 0 0 1-.93-.579 1 1 0 0 1 .105-1.106zM35.41 50.613a4.513 4.513 0 0 0-.79 3.81h-7.022a9.093 9.093 0 0 0 1.475-1.001l12.289-10.533zm-9.814-5.267 7.935-5.67a10.627 10.627 0 0 1 8.234-1.756l-15.01 12.868a5.269 5.269 0 0 1-4.477 1.159 5.267 5.267 0 0 1-3.669-2.791l-4.424-8.778a3.511 3.511 0 0 1 2.914-2.142 3.511 3.511 0 0 1 3.511 1.966l.562 1.106 1.756 3.511a1.756 1.756 0 0 0 2.581.632zM8.778 14.044c0-5.817 4.716-10.533 10.533-10.533s10.533 4.716 10.533 10.533-4.716 10.533-10.533 10.533S8.778 19.862 8.778 14.044zM3.511 44.258a21.821 21.821 0 0 1 9.217-17.819c.486.264.991.492 1.51.685l3.722 7.461a9.962 9.962 0 0 0-1.246 0 7.022 7.022 0 0 0-6.18 5.372c-.099.408-.05.837.14 1.211l4.74 9.515a8.781 8.781 0 0 0 6.127 4.67h.685l1.756 6.022H3.511zm.141 20.698h20.926v8.778H14.044a10.534 10.534 0 0 1-10.392-8.778zm70.081 8.777h-3.511v-3.511a8.778 8.778 0 0 0-8.778-8.778H40.378a8.778 8.778 0 0 0-8.778 8.778v3.511h-3.511v-15.8h45.644z" fill="#ffffff" data-original="#000000" class=""></path></g></svg>