<svg xmlns="http://www.w3.org/2000/svg" version="1.1" xmlns:xlink="http://www.w3.org/1999/xlink" xmlns:svgjs="http://svgjs.com/svgjs" width="512" height="512" x="0" y="0" viewBox="0 0 512 512" style="enable-background:new 0 0 512 512" xml:space="preserve" class=""><g><path d="m449.35 46.633 11.862-17.298a8.008 8.008 0 0 0-6.605-12.536h-55.205v-.808c0-4.423-3.585-8.008-8.008-8.008s-8.008 3.585-8.008 8.008V95.24a25.916 25.916 0 0 0-5.05 2.313l-.012.007-27.093 16.21-38.989-10.33c-13.718-3.655-27.856 4.538-31.512 18.259-.488 1.828-.745 3.701-.819 5.596l-51.481 34.92a25.677 25.677 0 0 0-9.456 11.814 25.574 25.574 0 0 0-8.432 3.184l-27.093 16.21-38.989-10.329c-13.713-3.655-27.854 4.536-31.514 18.262-.487 1.829-.743 3.701-.818 5.594l-51.44 34.911c-5.697 3.864-9.548 9.73-10.843 16.517-1.293 6.776.122 13.633 3.977 19.295 4.98 7.344 13.109 11.304 21.378 11.304a25.652 25.652 0 0 0 14.436-4.438l27.871-18.912c1.404 14.669 2.828 29.479 4.185 43.284L84.88 377.942c-3.243 6.068-3.929 13.033-1.933 19.613 1.997 6.58 6.438 11.99 12.506 15.232 3.791 2.026 7.93 3.055 12.106 3.055 2.52 0 5.053-.374 7.53-1.13 6.573-2.003 11.968-6.447 15.186-12.505l40.132-75.282a25.826 25.826 0 0 0 2.951-7.86l3.565 1.201 7.129 49.91c2.057 14.062 15.157 23.834 29.187 21.791 6.813-.976 12.838-4.554 16.962-10.073 4.122-5.517 5.845-12.304 4.853-19.086l-9.38-65.521c-1.371-9.721-8.005-17.679-17.273-20.755l-39.408-13.305-1.958-20.868 13.343 3.536c6.782 1.89 14.126.909 20.157-2.694l36.393-21.739c4.978-2.969 8.691-7.379 10.747-12.58a25.665 25.665 0 0 0 9.744-3.998l27.867-18.908c1.411 14.777 2.816 29.469 4.162 43.278l-36.785 69.034c-3.243 6.068-3.929 13.033-1.933 19.613 1.997 6.58 6.438 11.99 12.496 15.228a25.506 25.506 0 0 0 12.08 3.054c2.517 0 5.049-.374 7.526-1.129 6.569-2 11.973-6.434 15.226-12.501l40.132-75.281a25.653 25.653 0 0 0 2.936-7.861l3.582 1.205 7.126 49.884c.976 6.81 4.55 12.831 10.066 16.954 5.521 4.126 12.311 5.851 19.123 4.86 6.814-.977 12.839-4.556 16.963-10.076 4.121-5.517 5.843-12.303 4.851-19.083l-9.386-65.588c-1.41-9.658-8.027-17.596-17.273-20.719l-39.427-13.277-1.942-20.88 13.337 3.52a25.769 25.769 0 0 0 20.172-2.663l15.136-9.041c.484 3.96 3.852 7.028 7.942 7.028a8.008 8.008 0 0 0 8.008-8.008v-8.548l5.305-3.169c12.193-7.267 16.199-23.103 8.93-35.299-3.243-5.441-8.258-9.417-14.234-11.336V76.468h55.205a8.008 8.008 0 0 0 6.605-12.536zM80.645 271.285c-4.457 3.021-10.546 1.856-13.575-2.613-1.452-2.134-1.982-4.723-1.492-7.292a9.712 9.712 0 0 1 4.104-6.266l43.958-29.833c.701 7.258 1.413 14.681 2.129 22.171zm148.073-63.574-36.397 21.742c-2.323 1.388-5.048 1.746-7.67 1.008l-.117-.032-24.492-6.491a8.006 8.006 0 0 0-10.025 8.488l3.516 37.474a8.006 8.006 0 0 0 5.411 6.839l44.373 14.981c3.493 1.159 5.983 4.149 6.501 7.82l9.386 65.561a9.631 9.631 0 0 1-1.832 7.207 9.665 9.665 0 0 1-6.422 3.809c-5.324.772-10.27-2.931-11.045-8.232l-7.823-54.766a8.01 8.01 0 0 0-5.371-6.456l-18.851-6.35a8.008 8.008 0 0 0-10.528 8.346l.432 4.54c.261 2.536-.553 4.561-1.28 5.812-.05.086-.099.172-.145.26l-40.201 75.412a9.597 9.597 0 0 1-5.716 4.709 9.673 9.673 0 0 1-7.419-.73 9.67 9.67 0 0 1-4.729-5.758 9.673 9.673 0 0 1 .735-7.421l37.956-71.178a7.998 7.998 0 0 0 .902-4.553c-1.713-17.384-8.302-86.265-9.721-100.783a9.887 9.887 0 0 1 .276-3.491c1.386-5.193 6.732-8.289 11.926-6.908l42.265 11.197a7.992 7.992 0 0 0 6.162-.869l29.543-17.676a25.597 25.597 0 0 0 3.276 6.78 25.506 25.506 0 0 0 9.044 8.208 9.84 9.84 0 0 1-1.92 1.501zm19.709-16.08c-2.156 1.462-4.763 1.991-7.344 1.496a9.65 9.65 0 0 1-6.23-4.108c-3.026-4.446-1.864-10.531 2.58-13.557l43.988-29.837c.701 7.262 1.412 14.683 2.128 22.176zm148.074-63.574-36.398 21.742a9.56 9.56 0 0 1-7.627.993c-.056-.016-.112-.032-.169-.046l-24.491-6.463a8.007 8.007 0 0 0-10.017 8.484l3.486 37.474a8.01 8.01 0 0 0 5.418 6.848l44.356 14.937a9.728 9.728 0 0 1 6.54 7.834l9.386 65.59a9.629 9.629 0 0 1-1.831 7.204 9.67 9.67 0 0 1-6.424 3.811 9.686 9.686 0 0 1-7.242-1.838 9.639 9.639 0 0 1-3.801-6.395l-7.823-54.765a8.01 8.01 0 0 0-5.375-6.458l-18.879-6.35a8.007 8.007 0 0 0-10.52 8.396l.448 4.436a9.75 9.75 0 0 1-1.273 5.868 6.636 6.636 0 0 0-.146.26l-40.187 75.384a9.7 9.7 0 0 1-5.767 4.73 9.591 9.591 0 0 1-7.383-.724 9.67 9.67 0 0 1-4.729-5.758 9.674 9.674 0 0 1 .736-7.423l37.928-71.178a8.004 8.004 0 0 0 .902-4.544c-1.558-15.951-8.134-84.833-9.692-100.785a9.863 9.863 0 0 1 .277-3.496c1.16-4.354 5.105-7.237 9.414-7.237.829 0 1.672.107 2.51.33l42.265 11.197a7.996 7.996 0 0 0 6.162-.869l29.99-17.943a9.65 9.65 0 0 1 7.351-1.06 9.704 9.704 0 0 1 5.98 4.467c2.751 4.612 1.239 10.598-3.375 13.347zm36.534-76.895 6.371 9.29h-40.004V32.814h40.004l-6.371 9.291a8.009 8.009 0 0 0 0 9.057zm8.462 274.655a8.008 8.008 0 0 1-8.008 8.008h-82.701v48.714a8.008 8.008 0 0 1-8.008 8.008h-82.729v48.713a8.008 8.008 0 0 1-8.008 8.008h-82.7v48.742a8.008 8.008 0 0 1-8.008 8.008H70.598c-4.423 0-8.008-3.585-8.008-8.008s3.585-8.008 8.008-8.008h82.729V439.26a8.008 8.008 0 0 1 8.008-8.008h82.7v-48.713a8.008 8.008 0 0 1 8.008-8.008h82.729v-48.714a8.008 8.008 0 0 1 8.008-8.008h90.709a8.009 8.009 0 0 1 8.008 8.008zM228.58 48.071a8.005 8.005 0 0 1 9.043-6.817l21.401 3.005a8.007 8.007 0 0 1 6.308 10.937l-8.107 20.013a8.011 8.011 0 0 1-7.425 5.003 7.986 7.986 0 0 1-3.004-.588c-3.619-1.466-5.579-5.277-4.847-8.97l-62.921 36.32a8.004 8.004 0 0 1-10.938-2.932 8.008 8.008 0 0 1 2.933-10.939l62.94-36.331c-3.589-1.201-5.928-4.819-5.383-8.701zM113.694 82.527a8.007 8.007 0 0 1 2.931-10.939l62.917-36.33c-3.592-1.199-5.934-4.818-5.388-8.702a8 8 0 0 1 9.043-6.817l21.401 3.004a8.01 8.01 0 0 1 6.31 10.933l-8.106 20.041a8.012 8.012 0 0 1-7.427 5.007c-1 0-2.016-.188-3-.586-3.63-1.468-5.592-5.296-4.844-9l-62.899 36.32a7.962 7.962 0 0 1-3.996 1.075 8.008 8.008 0 0 1-6.942-4.006zm200.428 18.432c20.843 0 37.8-16.957 37.8-37.8s-16.957-37.8-37.8-37.8-37.8 16.957-37.8 37.8 16.957 37.8 37.8 37.8zm0-59.584c12.012 0 21.784 9.772 21.784 21.784s-9.772 21.784-21.784 21.784-21.784-9.772-21.784-21.784 9.772-21.784 21.784-21.784zM146.339 180.613c20.844 0 37.801-16.957 37.801-37.8 0-20.827-16.957-37.771-37.801-37.771-20.843 0-37.8 16.944-37.8 37.771 0 20.843 16.957 37.8 37.8 37.8zm0-59.556c12.013 0 21.785 9.76 21.785 21.756 0 12.012-9.772 21.785-21.785 21.785-12.012 0-21.784-9.772-21.784-21.785 0-11.997 9.772-21.756 21.784-21.756z" fill="#ffffff" data-original="#000000" class=""></path></g></svg>