<svg xmlns="http://www.w3.org/2000/svg" xmlns:xlink="http://www.w3.org/1999/xlink" viewBox="0,0,256,256" width="50px" height="50px" fill-rule="evenodd"><g fill="#ffffff" fill-rule="evenodd" stroke="none" stroke-width="1" stroke-linecap="butt" stroke-linejoin="miter" stroke-miterlimit="10" stroke-dasharray="" stroke-dashoffset="0" font-family="none" font-weight="none" font-size="none" text-anchor="none" style="mix-blend-mode: normal"><g transform="scale(5.12,5.12)"><path d="M40.34375,1.96094l-2.48437,0.45703l3.32813,18.20703l1.98438,-0.30078zM29.0625,6.66406l-1.96094,1.41406l10.19922,14.95703l1.74609,-1.23828zM20.35156,15.50781l-1.23828,2.19531l15.38672,9.29688l1.16406,-1.99609zM16.16406,25.17188l-0.53516,2.23047l17.73047,4.49219l0.64063,-1.97266zM9,29v18.98438l29.90234,0.01563v-0.01562c0.03125,0 0.09766,-18.98437 0.09766,-18.98437h-2v17h-26v-17zM15.17188,33.375l-0.26953,1.96484l18.09766,1.66016l0.20313,-1.96484zM15,40v2l18,-0.07031v-1.92969z"></path></g></g></svg>